<svg width="67" height="58" viewBox="0 0 67 58" fill="none" xmlns="http://www.w3.org/2000/svg">
<path d="M2.21274 57.7391C1.69231 57.7391 1.18548 57.5562 0.781255 57.2125C0.284317 56.7922 0 56.1766 0 55.5239V3.18099C0 2.52953 0.285554 1.91392 0.782492 1.49239C1.27943 1.07086 1.9346 0.891616 2.57617 0.997926L23.8604 4.53212C24.2288 4.59269 24.4983 4.91162 24.4983 5.28494V53.4224C24.4983 53.7957 24.2288 54.1147 23.8604 54.1752L2.57493 57.7094C2.45379 57.7305 2.33264 57.7391 2.2115 57.7391H2.21274ZM2.20903 2.49369C1.99764 2.49369 1.8456 2.59134 1.76895 2.65686C1.67871 2.73473 1.52543 2.90409 1.52543 3.18223V55.5251C1.52543 55.802 1.67871 55.9726 1.76895 56.0505C1.85919 56.1271 2.0508 56.2483 2.3277 56.205L22.9741 52.7771V5.93146L2.32646 2.50357C2.28443 2.49739 2.24611 2.49369 2.20903 2.49369Z" fill="black"/>
<path d="M46.7097 58C46.5589 58 46.4106 57.9555 46.282 57.869C46.0731 57.7268 45.9482 57.4907 45.9482 57.2373V1.47145C45.9482 1.21803 46.0731 0.981928 46.282 0.839769C46.4922 0.69761 46.7579 0.669177 46.9928 0.76189L64.7775 7.84264C65.9049 8.29137 66.6317 9.36436 66.6317 10.577V48.128C66.6317 49.3407 65.9036 50.4149 64.7763 50.8624L46.9916 57.9444C46.9013 57.9802 46.8049 57.9988 46.7097 57.9988V58ZM47.4724 2.59512V56.1124L64.2126 49.447C64.7552 49.2307 65.1063 48.7139 65.1063 48.1292V10.5783C65.1063 9.9948 64.7552 9.47685 64.2126 9.26052L47.4724 2.59512Z" fill="black"/>
<path d="M46.7097 58C46.6689 58 46.6269 57.9975 46.5849 57.9901L23.612 54.1753C23.2436 54.1147 22.9741 53.7958 22.9741 53.4224V5.28497C22.9741 4.91165 23.2436 4.59272 23.612 4.53215L46.5849 0.718579C46.8037 0.676549 47.0311 0.743302 47.2029 0.88917C47.3748 1.03504 47.4724 1.24642 47.4724 1.4714V57.2372C47.4724 57.4622 47.3748 57.6736 47.2029 57.8195C47.0645 57.9369 46.889 58 46.7097 58ZM24.4995 52.7759L45.947 56.3373V2.3701L24.4995 5.93025V52.7759Z" fill="black"/>
<path d="M35.2233 38.1435C34.7016 38.1435 34.2405 37.8505 34.018 37.3795L28.4033 26.1848C27.3118 23.8052 27.3971 21.0288 28.6209 18.732C29.7322 16.6478 31.6532 15.2423 33.8919 14.8776C34.7597 14.7355 35.6881 14.7355 36.5546 14.8776C38.7945 15.2423 40.7143 16.6478 41.8256 18.732C43.0494 21.0288 43.1347 23.8064 42.0543 26.1613L36.4236 37.3882C36.2147 37.8443 35.7511 38.1422 35.2233 38.1422V38.1435ZM35.0527 36.7206C35.0527 36.7206 35.049 36.7268 35.0477 36.7293L35.0527 36.7206ZM35.2233 16.2955C34.8537 16.2955 34.4915 16.3252 34.1379 16.382C32.3467 16.675 30.8658 17.7641 29.9671 19.4502C28.9658 21.3292 28.8953 23.6 29.778 25.5259L35.2233 36.3795L40.6785 25.5012C41.55 23.6 41.4795 21.3292 40.4782 19.4502C39.5795 17.7641 38.0986 16.675 36.3074 16.382C35.9538 16.3252 35.5916 16.2955 35.222 16.2955H35.2233Z" fill="black"/>
<path d="M35.2233 26.5013C33.0093 26.5013 31.2082 24.7002 31.2082 22.4862C31.2082 20.2722 33.0093 18.4711 35.2233 18.4711C37.4372 18.4711 39.2383 20.2722 39.2383 22.4862C39.2383 24.7002 37.4372 26.5013 35.2233 26.5013ZM35.2233 19.9966C33.8499 19.9966 32.7336 21.114 32.7336 22.4862C32.7336 23.8583 33.8499 24.9758 35.2233 24.9758C36.5966 24.9758 37.7129 23.8583 37.7129 22.4862C37.7129 21.114 36.5966 19.9966 35.2233 19.9966Z" fill="black"/>
<path d="M35.2233 43.9373C33.908 43.9373 32.8387 42.8681 32.8387 41.5528C32.8387 40.2375 33.908 39.1682 35.2233 39.1682C36.5386 39.1682 37.6078 40.2375 37.6078 41.5528C37.6078 42.8681 36.5386 43.9373 35.2233 43.9373ZM35.2233 40.6924C34.7498 40.6924 34.3641 41.0781 34.3641 41.5515C34.3641 42.025 34.7498 42.4107 35.2233 42.4107C35.6967 42.4107 36.0824 42.025 36.0824 41.5515C36.0824 41.0781 35.6967 40.6924 35.2233 40.6924Z" fill="black"/>
</svg>
