<svg width="87" height="51" viewBox="0 0 87 51" fill="none" xmlns="http://www.w3.org/2000/svg">
<path d="M71.1585 33.6041H45.7773C45.2814 33.6041 44.88 33.2027 44.88 32.7068C44.88 32.2109 45.2814 31.8095 45.7773 31.8095H71.1585C71.9395 31.8095 72.6434 31.3775 72.9982 30.6838L85.0707 7.08709C85.1609 6.91257 85.0983 6.76132 85.0533 6.68715C85.0125 6.6217 84.8744 6.48936 84.6431 6.47918C78.3822 6.47918 71.5919 14.6788 69.6561 17.1977C68.8693 18.223 67.6637 18.812 66.349 18.812H19.5017C15.7728 18.812 12.5514 19.609 9.92632 21.1826C4.999 24.1334 2.74477 28.543 1.84017 30.9092C1.76018 31.1186 1.78491 31.3426 1.90998 31.5244C2.03505 31.7062 2.23575 31.8109 2.46118 31.8109H26.5393C27.0352 31.8109 27.4366 32.2123 27.4366 32.7082C27.4366 33.2042 27.0352 33.6056 26.5393 33.6056H2.46118C1.6482 33.6056 0.889033 33.2085 0.430916 32.5424C-0.0272022 31.8778 -0.126097 31.027 0.163317 30.2679C1.15082 27.6864 3.61302 22.8725 9.00426 19.6424C11.9115 17.9001 15.4426 17.0173 19.5017 17.0173H66.349C67.1009 17.0173 67.7888 16.6843 68.2338 16.1055C70.8778 12.6674 77.7554 4.68597 84.6431 4.68597H84.7042C85.4794 4.69179 86.1847 5.09173 86.5876 5.75782C86.989 6.41809 87.0195 7.22235 86.669 7.90589L74.5965 31.5026C73.9334 32.7999 72.6157 33.6056 71.1585 33.6056V33.6041Z" fill="black"/>
<path d="M51.6877 50.8089H45.9853C44.56 50.8089 43.2118 50.2606 42.1924 49.263L21.0026 28.5793C20.6477 28.2332 20.639 27.666 20.9851 27.3097C21.3313 26.9548 21.8985 26.9475 22.2548 27.2922L43.4475 47.9802C44.131 48.6478 45.0327 49.0157 45.9867 49.0157H50.4327L43.2918 28.2273C43.1319 27.759 43.3805 27.2486 43.8488 27.0871C44.32 26.9257 44.8291 27.1759 44.989 27.6442L52.5385 49.6207C52.6316 49.8941 52.588 50.1981 52.4207 50.4337C52.252 50.6693 51.9801 50.8089 51.6907 50.8089H51.6877Z" fill="black"/>
<path d="M45.2319 18.8119C45.1694 18.8119 45.1054 18.8046 45.0414 18.7916C44.5571 18.6868 44.2488 18.2084 44.355 17.7241L47.8032 1.79611H43.3442C42.3407 1.79611 41.3823 2.22515 40.7119 2.96977L26.7531 18.5123C26.4215 18.8803 25.8543 18.9094 25.4863 18.5807C25.1169 18.2491 25.0864 17.6819 25.418 17.3125L39.3768 1.76994C40.3875 0.644276 41.8332 0 43.3457 0H48.9172C49.1878 0 49.4452 0.122167 49.6153 0.334501C49.7855 0.545381 49.8509 0.821703 49.7942 1.08639L46.1104 18.1007C46.0187 18.5211 45.6479 18.809 45.2349 18.809L45.2319 18.8119Z" fill="black"/>
<path d="M18.5796 24.9085H5.07317C4.57724 24.9085 4.17584 24.5071 4.17584 24.0112C4.17584 23.5153 4.57724 23.1139 5.07317 23.1139H18.5796C19.0756 23.1139 19.477 23.5153 19.477 24.0112C19.477 24.5071 19.0756 24.9085 18.5796 24.9085Z" fill="black"/>
<path d="M32.998 24.8926H27.6271C27.1312 24.8926 26.7298 24.4912 26.7298 23.9953C26.7298 23.4994 27.1312 23.098 27.6271 23.098H32.998C33.4939 23.098 33.8953 23.4994 33.8953 23.9953C33.8953 24.4912 33.4939 24.8926 32.998 24.8926Z" fill="black"/>
<path d="M43.8837 24.8926H38.5128C38.0169 24.8926 37.6155 24.4912 37.6155 23.9953C37.6155 23.4994 38.0169 23.098 38.5128 23.098H43.8837C44.3796 23.098 44.781 23.4994 44.781 23.9953C44.781 24.4912 44.3796 24.8926 43.8837 24.8926Z" fill="black"/>
<path d="M54.768 24.8926H49.3971C48.9012 24.8926 48.4998 24.4912 48.4998 23.9953C48.4998 23.4994 48.9012 23.098 49.3971 23.098H54.768C55.264 23.098 55.6654 23.4994 55.6654 23.9953C55.6654 24.4912 55.264 24.8926 54.768 24.8926Z" fill="black"/>
<path d="M65.6538 24.8926H60.2829C59.787 24.8926 59.3856 24.4912 59.3856 23.9953C59.3856 23.4994 59.787 23.098 60.2829 23.098H65.6538C66.1497 23.098 66.5511 23.4994 66.5511 23.9953C66.5511 24.4912 66.1497 24.8926 65.6538 24.8926Z" fill="black"/>
</svg>
