<svg width="48" height="81" viewBox="0 0 48 81" fill="none" xmlns="http://www.w3.org/2000/svg">
<g clip-path="url(#clip0_97_917)">
<path d="M39.9464 81H8.05359C3.87975 81 0.483887 77.5375 0.483887 73.2818V7.71825C0.483887 3.46249 3.87975 0 8.05359 0H39.9464C44.1203 0 47.5161 3.46249 47.5161 7.71825V73.2818C47.5161 77.5375 44.1203 81 39.9464 81ZM8.05359 1.97354C4.94791 1.97354 2.41945 4.55002 2.41945 7.71825V73.2818C2.41945 76.45 4.94791 79.0265 8.05359 79.0265H39.9464C43.0521 79.0265 45.5806 76.45 45.5806 73.2818V7.71825C45.5806 4.55002 43.0521 1.97354 39.9464 1.97354H8.05359Z" fill="black"/>
<path d="M38.5755 66.3136H9.42449C7.23639 66.3136 5.45612 64.4984 5.45612 62.2673V8.76737C5.45612 6.53634 7.23639 4.72113 9.42449 4.72113H38.574C40.7621 4.72113 42.5424 6.53634 42.5424 8.76737V62.2673C42.5424 64.4984 40.7621 66.3136 38.574 66.3136H38.5755ZM9.42449 6.69467C8.30456 6.69467 7.39168 7.62547 7.39168 8.76737V62.2673C7.39168 63.4108 8.30299 64.34 9.42449 64.34H38.574C39.6955 64.34 40.6068 63.4108 40.6068 62.2673V8.76737C40.6068 7.62387 39.6955 6.69467 38.574 6.69467H9.42449Z" fill="black"/>
<path d="M26.6861 76.338H21.3139C19.5195 76.338 18.0592 74.8507 18.0592 73.0211V72.3206C18.0592 70.491 19.5195 69.0036 21.3139 69.0036H26.6861C28.4805 69.0036 29.9392 70.491 29.9392 72.3206V73.0211C29.9392 74.8507 28.479 76.338 26.6861 76.338ZM21.3139 70.9755C20.5861 70.9755 19.9948 71.5785 19.9948 72.3206V73.0211C19.9948 73.7615 20.5861 74.3661 21.3139 74.3661H26.6861C27.4124 74.3661 28.0053 73.7631 28.0053 73.0211V72.3206C28.0053 71.5801 27.4139 70.9755 26.6861 70.9755H21.3139Z" fill="black"/>
<path d="M24.0024 42.4231C22.9373 42.4231 21.8551 42.228 20.8041 41.8138C16.2193 40.0098 13.9293 34.7369 15.6986 30.0637C16.555 27.7991 18.2255 26.0095 20.4026 25.0275C22.5782 24.0439 25.0015 23.9832 27.2226 24.8596C31.8074 26.6636 34.0974 31.9333 32.3281 36.6081C30.9651 40.2113 27.5802 42.4247 24.0024 42.4247V42.4231ZM24.0102 26.2174C23.0503 26.2174 22.0919 26.4221 21.1869 26.8299C19.4835 27.5992 18.1753 29.0002 17.5055 30.7722C16.1205 34.4314 17.9134 38.5576 21.5021 39.9714C25.0909 41.3868 29.1377 39.554 30.5227 35.8948C31.9077 32.2356 30.1149 28.1094 26.5261 26.6972C25.7105 26.3773 24.8604 26.2158 24.0102 26.2158V26.2174Z" fill="black"/>
<path d="M16.039 55.3903C15.9229 55.3903 15.8053 55.3695 15.6907 55.3247C15.192 55.128 14.9441 54.5571 15.1355 54.0485L20.2505 40.5392C20.4418 40.0306 21.0033 39.7731 21.5021 39.9746C22.0009 40.1713 22.2488 40.7423 22.0574 41.2509L16.9424 54.7602C16.795 55.152 16.428 55.3919 16.0405 55.3919L16.039 55.3903Z" fill="black"/>
<path d="M19.7783 36.0979C19.3501 36.0979 18.9564 35.8052 18.8419 35.3622C17.8036 31.3336 20.2065 28.9378 21.6229 28.2325C22.1029 27.991 22.6832 28.1973 22.9169 28.6867C23.1507 29.1745 22.953 29.7631 22.4762 30.003C22.1954 30.1485 19.8442 31.4839 20.7147 34.86C20.8512 35.3862 20.5422 35.9268 20.0246 36.0643C19.9415 36.0867 19.8599 36.0963 19.7783 36.0963V36.0979Z" fill="black"/>
</g>
<defs>
<clipPath id="clip0_97_917">
<rect width="47.0323" height="81" fill="white" transform="translate(0.483887)"/>
</clipPath>
</defs>
</svg>
