<svg width="71" height="64" viewBox="0 0 71 64" fill="none" xmlns="http://www.w3.org/2000/svg">
<path d="M7.73202 6.52921C6.50728 6.52921 5.30644 6.20102 4.24014 5.55093C3.87423 5.32837 3.75854 4.85055 3.98111 4.48463C4.20493 4.11998 4.6815 4.00304 5.04741 4.2256C6.48716 5.10203 8.25008 5.21772 9.88725 4.5387C11.5332 3.85718 12.7492 2.48658 13.1415 0.873302C13.2433 0.457093 13.6595 0.198062 14.0783 0.302428C14.4945 0.40428 14.7497 0.823003 14.6491 1.23921C14.1399 3.33157 12.5819 5.10203 10.4808 5.97343C9.58169 6.34563 8.64994 6.53047 7.73202 6.53047V6.52921Z" fill="black"/>
<path d="M20.0498 6.54812C19.1244 6.54812 18.1964 6.3658 17.3137 6.00114C15.2603 5.15112 13.7413 3.42342 13.1453 1.2619C13.0321 0.849461 13.2748 0.421935 13.6872 0.308767C14.1022 0.194341 14.5272 0.437024 14.6416 0.851975C15.1081 2.54825 16.2989 3.9025 17.9072 4.56893C19.5154 5.23537 21.3148 5.11969 22.8451 4.24955C23.2173 4.03704 23.6913 4.17033 23.9026 4.54001C24.1151 4.91221 23.9843 5.38626 23.6121 5.59751C22.5005 6.22874 21.2771 6.54938 20.0498 6.54938V6.54812Z" fill="black"/>
<path d="M22.8866 64C22.7935 64 22.7005 63.9837 22.6087 63.9485L4.99591 57.1986C4.7746 57.1131 4.60485 56.932 4.53317 56.7069C4.46276 56.4806 4.49797 56.2354 4.63125 56.0392L25.3864 25.3907C25.6265 25.0361 26.1081 24.9418 26.464 25.1832C26.8186 25.4234 26.9116 25.9062 26.6715 26.2596L6.46333 56.0996L23.1632 62.4999C23.5631 62.6533 23.7643 63.1022 23.6109 63.5021C23.4927 63.8114 23.1984 64 22.8866 64Z" fill="black"/>
<path d="M22.8866 64C22.708 64 22.5332 63.9384 22.3924 63.8227C22.1962 63.6605 22.0919 63.4128 22.1133 63.1588L25.2556 25.7603C25.2832 25.4322 25.5146 25.158 25.8327 25.075C26.1521 24.9921 26.4878 25.1191 26.6714 25.3919L30.0853 30.4355L47.4265 56.0405C47.5661 56.2454 47.5988 56.507 47.5133 56.7409C47.4278 56.9747 47.2354 57.1533 46.9952 57.2212L23.0978 63.9711C23.0287 63.9912 22.957 64 22.8866 64ZM26.6186 28.079L23.7555 62.1717L45.5404 56.0178L26.6199 28.0778L26.6186 28.079Z" fill="black"/>
<path d="M40.9659 48.6744C40.9432 48.6744 40.9219 48.6744 40.8992 48.6719C40.4717 48.6355 40.1548 48.2607 40.1913 47.8332L43.2381 11.8834L30.0854 31.3031C29.8439 31.6577 29.3623 31.7507 29.0077 31.5105C28.6531 31.2704 28.5601 30.7875 28.8003 30.4342L43.6191 8.55494C43.8177 8.26322 44.1887 8.14251 44.5206 8.25819C44.8539 8.37513 45.0651 8.70332 45.0349 9.05414L41.7379 47.964C41.7027 48.3689 41.3645 48.6744 40.9659 48.6744Z" fill="black"/>
<path d="M44.3396 53.6413C44.0013 53.6413 43.6895 53.4175 43.5927 53.0755C43.477 52.663 43.7171 52.2343 44.1283 52.1186L67.9993 45.3888L44.2629 10.3707L30.0854 31.3019C29.8452 31.6565 29.3636 31.752 29.0077 31.5093C28.6531 31.2692 28.5601 30.7863 28.8003 30.433L43.6191 8.55373C43.9083 8.12872 44.6149 8.12746 44.9041 8.55373L69.888 45.4089C70.0288 45.6152 70.0603 45.8767 69.9748 46.1106C69.8892 46.3445 69.6969 46.523 69.4567 46.5909L44.5508 53.6124C44.4804 53.6325 44.4087 53.6413 44.3396 53.6413Z" fill="black"/>
<path d="M13.9438 28.1155C13.8834 28.1155 13.8218 28.1092 13.7602 28.0941C13.344 27.9923 13.0887 27.5735 13.1893 27.1573C13.7061 25.0323 15.205 23.3159 17.3036 22.4458C19.4073 21.5769 21.7587 21.7265 23.5983 22.8444C23.9642 23.0669 24.0799 23.5447 23.8573 23.9107C23.6348 24.2766 23.1569 24.396 22.791 24.1697C21.3726 23.3046 19.5418 23.199 17.8971 23.8792C16.2612 24.557 15.0943 25.8848 14.697 27.522C14.6102 27.8766 14.2933 28.1155 13.9438 28.1155Z" fill="black"/>
<path d="M0.775955 14.998C0.435192 14.998 0.123351 14.773 0.027786 14.4284C-0.0853826 14.016 0.1573 13.5885 0.570994 13.474C2.26726 13.0075 3.62151 11.818 4.28795 10.2098C4.95439 8.60025 4.83871 6.80087 3.96856 5.27184C3.75606 4.89964 3.88683 4.42559 4.25903 4.21434C4.62997 4.00183 5.10528 4.13261 5.31653 4.50481C6.42558 6.45256 6.5727 8.74737 5.72142 10.8033C4.87014 12.8579 3.14244 14.3769 0.980917 14.9704C0.911758 14.9892 0.842598 14.998 0.774697 14.998H0.775955Z" fill="black"/>
<path d="M23.1959 24.2829C22.9255 24.2829 22.664 24.1421 22.5206 23.8906C21.4116 21.9429 21.2645 19.6481 22.1157 17.5922C22.9658 15.5388 24.6935 14.0198 26.855 13.425C27.2687 13.3106 27.6962 13.5533 27.8094 13.9682C27.9226 14.3807 27.6799 14.8082 27.2674 14.9214C25.5712 15.3879 24.2157 16.5774 23.5505 18.1857C22.884 19.7952 22.9997 21.5945 23.8699 23.1236C24.0824 23.4958 23.9516 23.9698 23.5794 24.1811C23.4587 24.2502 23.3267 24.2829 23.1971 24.2829H23.1959Z" fill="black"/>
<path d="M4.60735 24.2489C4.47029 24.2489 4.33072 24.2125 4.20497 24.1358C3.83906 23.9119 3.72338 23.4354 3.94594 23.0695C4.80979 21.6511 4.91919 19.8215 4.23641 18.1768C3.55866 16.5396 2.23081 15.3727 0.59364 14.9754C0.177432 14.8735 -0.0778274 14.4548 0.0227669 14.0386C0.123361 13.6224 0.543342 13.3609 0.95955 13.4677C3.08335 13.9845 4.80099 15.4834 5.66987 17.582C6.54127 19.6832 6.39164 22.0371 5.27001 23.8767C5.12415 24.1169 4.86889 24.2489 4.60609 24.2489H4.60735Z" fill="black"/>
<path d="M27.0612 14.949C27.0009 14.949 26.9392 14.9427 26.8776 14.9276C24.7853 14.4196 23.0161 12.8617 22.1447 10.7593C21.2758 8.66062 21.4292 6.38594 22.5659 4.51865C22.7885 4.154 23.2663 4.03706 23.6322 4.25962C23.9981 4.48345 24.1138 4.96001 23.8912 5.32592C23.0148 6.76568 22.9004 8.52859 23.5781 10.1658C24.2597 11.8105 25.6303 13.0277 27.2435 13.42C27.6597 13.5218 27.915 13.9406 27.8144 14.3568C27.7276 14.7126 27.4108 14.9503 27.0612 14.9503V14.949Z" fill="black"/>
<path d="M13.9425 28.1155C13.6017 28.1155 13.2899 27.8904 13.1943 27.5459C12.7278 25.8496 11.5383 24.4954 9.92875 23.8289C8.31924 23.1625 6.51986 23.2794 4.99083 24.1483C4.61863 24.3621 4.14458 24.2301 3.93333 23.8579C3.72083 23.4857 3.8516 23.0116 4.2238 22.8004C6.17156 21.6913 8.46636 21.5454 10.5223 22.3955C12.5769 23.2455 14.0959 24.9732 14.6906 27.1347C14.8038 27.5471 14.5611 27.9747 14.1474 28.0878C14.0783 28.1067 14.0091 28.1155 13.9412 28.1155H13.9425Z" fill="black"/>
<path d="M13.9186 20.229C10.5927 20.229 7.88797 17.5242 7.88797 14.1983C7.88797 10.8724 10.594 8.16644 13.9186 8.16644C17.2432 8.16644 19.9492 10.8724 19.9492 14.1983C19.9492 17.5242 17.2445 20.229 13.9186 20.229ZM13.9186 9.71811C11.449 9.71811 9.43964 11.7275 9.43964 14.1983C9.43964 16.6692 11.449 18.6773 13.9186 18.6773C16.3882 18.6773 18.3976 16.6679 18.3976 14.1983C18.3976 11.7287 16.3882 9.71811 13.9186 9.71811Z" fill="black"/>
</svg>
