<svg width="73" height="79" viewBox="0 0 73 79" fill="none" xmlns="http://www.w3.org/2000/svg">
<g clip-path="url(#clip0_91_854)">
<path d="M52.9663 40.8053C52.4786 40.8053 52.0838 40.4057 52.0838 39.9119V30.4603H20.8733V39.9119C20.8733 40.4042 20.4785 40.8053 19.9907 40.8053C19.503 40.8053 19.1082 40.4057 19.1082 39.9119V29.5669C19.1082 29.0746 19.503 28.6736 19.9907 28.6736H52.9649C53.4527 28.6736 53.8474 29.0732 53.8474 29.5669V39.9119C53.8474 40.4042 53.4527 40.8053 52.9649 40.8053H52.9663Z" fill="black"/>
<path d="M52.9663 79H19.9922C19.5044 79 19.1096 78.6004 19.1096 78.1067C19.1096 77.6129 19.5044 77.2133 19.9922 77.2133H52.9663C53.4541 77.2133 53.8488 77.6129 53.8488 78.1067C53.8488 78.6004 53.4541 79 52.9663 79Z" fill="black"/>
<path d="M23.3292 79H2.07686C1.45036 79 0.866776 78.7408 0.476287 78.2877C0.110114 77.8649 -0.0572381 77.3031 0.0171408 76.7471L4.01501 48.8873C4.08509 48.3993 4.5328 48.0504 5.01483 48.1315C5.49686 48.2024 5.83157 48.6556 5.76148 49.145L1.76647 76.9947C1.86231 77.1771 1.961 77.2133 2.07829 77.2133H23.3292C23.4465 77.2133 23.5452 77.1757 23.6024 77.112L19.646 49.145C19.5759 48.657 19.9092 48.2024 20.3912 48.13C20.8718 48.0721 21.321 48.3979 21.3925 48.8844L25.3889 76.737C25.4633 77.3017 25.2959 77.8634 24.9312 78.2862C24.5407 78.7394 23.9571 78.9986 23.3306 78.9986L23.3292 79Z" fill="black"/>
<path d="M21.5727 49.9094H3.83335C2.52314 49.9094 1.45752 48.8771 1.45752 47.6088V41.3192C1.45752 40.0509 2.52314 39.0186 3.83335 39.0186H21.5727C22.9044 39.0186 23.9485 40.0277 23.9485 41.3192V47.6088C23.9485 48.8988 22.9058 49.9094 21.5727 49.9094ZM3.83335 40.8052C3.51438 40.8052 3.22259 41.0514 3.22259 41.3192V47.6088C3.22259 47.8781 3.51438 48.1242 3.83335 48.1242H21.5727C21.9146 48.1242 22.1835 47.8983 22.1835 47.6088V41.3192C22.1835 41.0311 21.9146 40.8052 21.5727 40.8052H3.83335Z" fill="black"/>
<path d="M6.11624 45.3646C5.62848 45.3646 5.2337 44.965 5.2337 44.4712V39.9191C5.2337 39.4269 5.62848 39.0258 6.11624 39.0258C6.60399 39.0258 6.99877 39.4254 6.99877 39.9191V44.4712C6.99877 44.965 6.60399 45.3646 6.11624 45.3646Z" fill="black"/>
<path d="M12.703 45.3646C12.2153 45.3646 11.8205 44.965 11.8205 44.4712V39.9191C11.8205 39.4269 12.2153 39.0258 12.703 39.0258C13.1908 39.0258 13.5856 39.4254 13.5856 39.9191V44.4712C13.5856 44.965 13.1908 45.3646 12.703 45.3646Z" fill="black"/>
<path d="M19.2899 45.3646C18.8021 45.3646 18.4073 44.965 18.4073 44.4712V39.9191C18.4073 39.4269 18.8021 39.0258 19.2899 39.0258C19.7776 39.0258 20.1724 39.4254 20.1724 39.9191V44.4712C20.1724 44.965 19.7776 45.3646 19.2899 45.3646Z" fill="black"/>
<path d="M17.4447 79C16.957 79 16.5622 78.6004 16.5622 78.1067V68.4233C16.5622 66.4513 14.83 64.8471 12.7016 64.8471C10.5733 64.8471 8.84252 66.4513 8.84252 68.4233V78.1067C8.84252 78.6004 8.44774 79 7.95999 79C7.47223 79 7.07745 78.6004 7.07745 78.1067V68.4233C7.07745 65.4668 9.60061 63.0604 12.7016 63.0604C15.8027 63.0604 18.3258 65.4668 18.3258 68.4233V78.1067C18.3258 78.6004 17.931 79 17.4433 79H17.4447Z" fill="black"/>
<path d="M70.926 79H49.6307C49.0285 79 48.4635 78.7452 48.0773 78.2993C47.7083 77.8721 47.5395 77.3075 47.6139 76.7471L51.6103 48.8858C51.6804 48.3979 52.1296 48.0736 52.6116 48.1315C53.0936 48.2039 53.4283 48.6571 53.3568 49.1464L49.3618 76.9947C49.4562 77.1815 49.5377 77.2148 49.6307 77.2148H70.926C71.0318 77.2148 71.1319 77.1728 71.1934 77.1004L67.2428 49.145C67.1727 48.6571 67.5074 48.2024 67.9894 48.1315C68.4715 48.0663 68.9192 48.3993 68.9892 48.8873L72.9842 76.737C73.0586 77.293 72.8898 77.8504 72.5222 78.2761C72.1246 78.7365 71.5424 79 70.926 79Z" fill="black"/>
<path d="M69.1681 49.9094H51.4302C50.0985 49.9094 49.0543 48.8988 49.0543 47.6088V41.3192C49.0543 40.0292 50.0985 39.0186 51.4302 39.0186H69.1681C70.4783 39.0186 71.5439 40.0494 71.5439 41.3192V47.6088C71.5439 48.8785 70.4783 49.9094 69.1681 49.9094ZM51.4302 40.8052C51.0883 40.8052 50.8194 41.0311 50.8194 41.3192V47.6088C50.8194 47.8983 51.0883 48.1242 51.4302 48.1242H69.1681C69.4871 48.1242 69.7788 47.8795 69.7788 47.6088V41.3192C69.7788 41.0514 69.4885 40.8052 69.1681 40.8052H51.4302Z" fill="black"/>
<path d="M53.7044 45.3646C53.2167 45.3646 52.8219 44.965 52.8219 44.4712V39.9191C52.8219 39.4269 53.2167 39.0258 53.7044 39.0258C54.1922 39.0258 54.587 39.4254 54.587 39.9191V44.4712C54.587 44.965 54.1922 45.3646 53.7044 45.3646Z" fill="black"/>
<path d="M60.2898 45.3646C59.8021 45.3646 59.4073 44.965 59.4073 44.4712V39.9191C59.4073 39.4269 59.8021 39.0258 60.2898 39.0258C60.7776 39.0258 61.1724 39.4254 61.1724 39.9191V44.4712C61.1724 44.965 60.7776 45.3646 60.2898 45.3646Z" fill="black"/>
<path d="M66.8766 45.3646C66.3889 45.3646 65.9941 44.965 65.9941 44.4712V39.9191C65.9941 39.4269 66.3889 39.0258 66.8766 39.0258C67.3644 39.0258 67.7591 39.4254 67.7591 39.9191V44.4712C67.7591 44.965 67.3644 45.3646 66.8766 45.3646Z" fill="black"/>
<path d="M65.0414 79C64.5537 79 64.1589 78.6004 64.1589 78.1067V68.4233C64.1589 66.4513 62.4282 64.8471 60.2998 64.8471C58.1714 64.8471 56.4407 66.4513 56.4407 68.4233V78.1067C56.4407 78.6004 56.0459 79 55.5581 79C55.0704 79 54.6756 78.6004 54.6756 78.1067V68.4233C54.6756 65.4668 57.1988 63.0604 60.2998 63.0604C63.4008 63.0604 65.924 65.4668 65.924 68.4233V78.1067C65.924 78.6004 65.5292 79 65.0414 79Z" fill="black"/>
<path d="M52.8591 30.4747H20.1338C18.2886 30.4747 16.7896 28.9559 16.7896 27.0896C16.7896 25.2233 18.2901 23.7031 20.1338 23.7031H52.8591C54.7042 23.7031 56.2033 25.2219 56.2033 27.0896C56.2033 28.9574 54.7028 30.4747 52.8591 30.4747ZM20.1338 25.4897C19.2627 25.4897 18.5533 26.2079 18.5533 27.0896C18.5533 27.9714 19.2627 28.6881 20.1338 28.6881H52.8591C53.7302 28.6881 54.4396 27.9699 54.4396 27.0896C54.4396 26.2093 53.7302 25.4897 52.8591 25.4897H20.1338Z" fill="black"/>
<path d="M55.8843 25.4897H17.1086C16.5736 25.4897 16.1059 25.1437 15.9428 24.6282C15.7798 24.1128 15.9628 23.5554 16.3977 23.2397L34.908 9.89907C35.8592 9.21423 37.1351 9.21423 38.0848 9.89907L56.5937 23.2397C57.03 23.5554 57.2131 24.1128 57.05 24.6282C56.887 25.1437 56.4178 25.4897 55.8828 25.4897H55.8843ZM18.7993 23.703H54.195L37.0621 11.3527C36.7246 11.1109 36.2697 11.1109 35.9336 11.3527L18.8007 23.703H18.7993Z" fill="black"/>
<path d="M45.4584 79C44.9706 79 44.5759 78.6004 44.5759 78.1067V74.1352C44.5759 72.1429 43.7405 70.2592 42.2229 68.8302C40.6881 67.3823 38.6556 66.586 36.5015 66.586C32.073 66.586 28.47 69.9726 28.47 74.1352V78.1067C28.47 78.6004 28.0752 79 27.5874 79C27.0997 79 26.7049 78.6004 26.7049 78.1067V74.1352C26.7049 68.988 31.099 64.7993 36.5 64.7993C39.1018 64.7993 41.5621 65.765 43.4244 67.5213C45.3039 69.2921 46.3395 71.6405 46.3395 74.1352V78.1067C46.3395 78.6004 45.9447 79 45.457 79H45.4584Z" fill="black"/>
<path d="M51.3415 57.8133H21.66C21.1722 57.8133 20.7775 57.4137 20.7775 56.92C20.7775 56.4263 21.1722 56.0267 21.66 56.0267H51.3415C51.8292 56.0267 52.224 56.4263 52.224 56.92C52.224 57.4137 51.8292 57.8133 51.3415 57.8133Z" fill="black"/>
<path d="M52.9663 36.0041H19.9922C19.5044 36.0041 19.1096 35.6045 19.1096 35.1108C19.1096 34.6171 19.5044 34.2175 19.9922 34.2175H52.9663C53.4541 34.2175 53.8488 34.6171 53.8488 35.1108C53.8488 35.6045 53.4541 36.0041 52.9663 36.0041Z" fill="black"/>
<path d="M31.8556 52.9572H31.6997C30.0262 52.9572 28.6659 51.5803 28.6659 49.8863V42.1213C28.6659 40.4273 30.0276 39.0504 31.6997 39.0504C33.5291 39.0504 34.8894 40.4273 34.8894 42.1213V49.8863C34.8894 51.5803 33.5291 52.9572 31.8556 52.9572ZM31.8556 40.8371C31.0002 40.8371 30.4295 41.4133 30.4295 42.1213V49.8863C30.4295 50.5943 30.9988 51.1705 31.6997 51.1705H31.8556C32.5551 51.1705 33.1243 50.5943 33.1243 49.8863V42.1213C33.1243 41.4133 32.5551 40.8371 31.8556 40.8371Z" fill="black"/>
<path d="M41.2946 52.9572H41.1387C39.4651 52.9572 38.1049 51.5803 38.1049 49.8863V42.1213C38.1049 40.4273 39.4666 39.0504 41.1387 39.0504C42.9681 39.0504 44.3284 40.4273 44.3284 42.1213V49.8863C44.3284 51.5803 42.9681 52.9572 41.2946 52.9572ZM41.2946 40.8371C40.4392 40.8371 39.8685 41.4133 39.8685 42.1213V49.8863C39.8685 50.5943 40.4378 51.1705 41.1387 51.1705H41.2946C41.994 51.1705 42.5633 50.5943 42.5633 49.8863V42.1213C42.5633 41.4133 41.994 40.8371 41.2946 40.8371Z" fill="black"/>
<path d="M36.4972 11.1703C36.0094 11.1703 35.6146 10.7707 35.6146 10.277V0.893334C35.6146 0.399611 36.0094 0 36.4972 0C36.9849 0 37.3797 0.399611 37.3797 0.893334V10.277C37.3797 10.7707 36.9849 11.1703 36.4972 11.1703Z" fill="black"/>
<path d="M36.4971 6.67467C36.1295 6.67467 35.7877 6.44156 35.6618 6.07091C35.5045 5.60325 35.7519 5.09649 36.2125 4.93723L38.9202 4.00191L36.2354 3.15925C35.7691 3.01301 35.5088 2.51205 35.6532 2.04149C35.7977 1.57094 36.2926 1.30019 36.7575 1.45366L42.0312 3.10857C42.396 3.22295 42.6463 3.56175 42.652 3.94978C42.6577 4.33636 42.416 4.6824 42.0541 4.80692L36.7804 6.62834C36.6859 6.66164 36.5901 6.67612 36.4957 6.67612L36.4971 6.67467Z" fill="black"/>
</g>
<defs>
<clipPath id="clip0_91_854">
<rect width="73" height="79" fill="white"/>
</clipPath>
</defs>
</svg>
