<svg width="352" height="282" viewBox="0 0 352 282" fill="none" xmlns="http://www.w3.org/2000/svg">
<path d="M352 281.618H0.000244141V282H352V281.618Z" fill="#1A3A49"/>
<path d="M197.658 228.871L197.656 228.775C198.035 228.77 198.419 228.757 198.798 228.737L198.803 228.832C198.423 228.852 198.037 228.865 197.658 228.87V228.871ZM196.511 228.865C196.131 228.856 195.746 228.839 195.365 228.816L195.371 228.721C195.75 228.744 196.135 228.761 196.513 228.77L196.51 228.866L196.511 228.865ZM199.945 228.752L199.937 228.657C200.314 228.623 200.696 228.581 201.072 228.533L201.084 228.628C200.707 228.676 200.324 228.718 199.945 228.752ZM194.222 228.724C193.843 228.686 193.46 228.64 193.083 228.588L193.096 228.493C193.473 228.546 193.854 228.591 194.231 228.629L194.222 228.724ZM202.217 228.461L202.201 228.366C202.575 228.304 202.953 228.233 203.324 228.157L203.343 228.251C202.971 228.327 202.592 228.397 202.217 228.46V228.461ZM191.95 228.408C191.574 228.342 191.196 228.266 190.824 228.186L190.845 228.092C191.215 228.173 191.592 228.247 191.966 228.314L191.95 228.408ZM204.461 228L204.439 227.907C204.806 227.817 205.178 227.718 205.543 227.614L205.569 227.706C205.202 227.81 204.83 227.91 204.461 227.999V228ZM189.709 227.921C189.472 227.86 189.232 227.796 188.996 227.728C188.865 227.691 188.734 227.654 188.603 227.616L188.63 227.524C188.76 227.562 188.891 227.6 189.022 227.636C189.258 227.704 189.497 227.768 189.732 227.829L189.709 227.922V227.921ZM206.665 227.372L206.636 227.281C206.996 227.164 207.359 227.039 207.715 226.907L207.748 226.998C207.391 227.129 207.026 227.255 206.665 227.373V227.372ZM187.506 227.283C187.142 227.169 186.776 227.05 186.415 226.929L186.446 226.839C186.805 226.959 187.172 227.079 187.534 227.192L187.506 227.283ZM208.817 226.581L208.781 226.492C209.132 226.349 209.485 226.196 209.831 226.039L209.87 226.126C209.523 226.283 209.169 226.437 208.817 226.581ZM185.332 226.552C184.973 226.424 184.612 226.289 184.257 226.154L184.292 226.064C184.646 226.2 185.007 226.334 185.365 226.463L185.333 226.553L185.332 226.552ZM183.191 225.732C182.839 225.589 182.484 225.44 182.133 225.289L182.171 225.201C182.52 225.352 182.876 225.5 183.226 225.644L183.19 225.732H183.191ZM210.906 225.632L210.863 225.547C211.203 225.376 211.544 225.198 211.876 225.015L211.921 225.099C211.589 225.281 211.247 225.461 210.906 225.632ZM181.085 224.823C180.74 224.664 180.39 224.5 180.047 224.335L180.089 224.249C180.432 224.414 180.78 224.578 181.126 224.736L181.086 224.823H181.085ZM212.916 224.528L212.867 224.446C213.192 224.252 213.519 224.049 213.838 223.84L213.89 223.921C213.57 224.129 213.243 224.333 212.917 224.528H212.916ZM179.021 223.826C178.683 223.653 178.341 223.475 178.005 223.294L178.05 223.21C178.385 223.389 178.726 223.568 179.064 223.74L179.021 223.826ZM214.84 223.277L214.785 223.199C215.096 222.979 215.406 222.751 215.707 222.522L215.765 222.598C215.464 222.828 215.152 223.057 214.84 223.278V223.277ZM177.001 222.741C176.669 222.554 176.336 222.359 176.008 222.165L176.057 222.083C176.383 222.277 176.717 222.47 177.047 222.657L177.001 222.741ZM216.664 221.883L216.603 221.809C216.895 221.567 217.188 221.316 217.471 221.063L217.535 221.134C217.251 221.388 216.957 221.64 216.664 221.883ZM175.029 221.567C174.707 221.365 174.382 221.157 174.063 220.949L174.116 220.869C174.433 221.077 174.758 221.286 175.08 221.487L175.029 221.568V221.567ZM218.375 220.353L218.309 220.284C218.583 220.019 218.855 219.746 219.118 219.473L219.187 219.539C218.923 219.814 218.65 220.088 218.375 220.353ZM173.111 220.308C172.798 220.093 172.482 219.87 172.173 219.646L172.229 219.569C172.537 219.792 172.852 220.014 173.165 220.23L173.111 220.308H173.111ZM171.251 218.965C170.948 218.736 170.642 218.5 170.343 218.263L170.402 218.188C170.701 218.425 171.005 218.66 171.307 218.889L171.25 218.965H171.251ZM219.966 218.694L219.895 218.63C220.147 218.346 220.397 218.052 220.638 217.759L220.712 217.819C220.47 218.115 220.22 218.409 219.966 218.694V218.694ZM169.451 217.54C169.158 217.297 168.863 217.048 168.575 216.799L168.638 216.727C168.924 216.975 169.218 217.224 169.512 217.467L169.451 217.54ZM221.422 216.915L221.346 216.857C221.575 216.554 221.802 216.242 222.019 215.929L222.097 215.984C221.88 216.297 221.652 216.611 221.422 216.916V216.915ZM167.716 216.039C167.435 215.786 167.151 215.523 166.873 215.261L166.938 215.191C167.217 215.453 167.499 215.714 167.78 215.968L167.716 216.039ZM222.735 215.026L222.655 214.974C222.86 214.654 223.061 214.324 223.253 213.995L223.335 214.044C223.143 214.373 222.941 214.704 222.735 215.026ZM166.047 214.465C165.775 214.198 165.502 213.924 165.237 213.653L165.305 213.585C165.57 213.857 165.841 214.13 166.113 214.397L166.046 214.465H166.047ZM223.896 213.037L223.812 212.992C223.99 212.657 224.164 212.313 224.329 211.971L224.415 212.013C224.25 212.357 224.075 212.702 223.896 213.037ZM164.445 212.823C164.184 212.544 163.923 212.259 163.67 211.976L163.741 211.912C163.994 212.194 164.254 212.479 164.514 212.757L164.445 212.823ZM162.913 211.114C162.666 210.827 162.417 210.531 162.174 210.237L162.248 210.176C162.49 210.47 162.739 210.765 162.986 211.052L162.914 211.114H162.913ZM224.892 210.968L224.805 210.931C224.955 210.583 225.102 210.226 225.239 209.872L225.329 209.906C225.191 210.262 225.044 210.62 224.892 210.969V210.968ZM161.452 209.345C161.216 209.047 160.98 208.742 160.749 208.438L160.825 208.379C161.055 208.683 161.292 208.987 161.526 209.285L161.452 209.344V209.345ZM225.722 208.827L225.632 208.796C225.726 208.523 225.816 208.246 225.901 207.973C225.929 207.883 225.957 207.795 225.986 207.706L226.077 207.736C226.048 207.823 226.019 207.912 225.992 208.001C225.907 208.275 225.816 208.553 225.722 208.827ZM160.064 207.518C159.843 207.212 159.618 206.898 159.398 206.583L159.477 206.528C159.696 206.842 159.92 207.156 160.141 207.46L160.064 207.517V207.518ZM226.474 206.663L226.385 206.626C226.532 206.271 226.692 205.919 226.863 205.58L226.949 205.623C226.778 205.96 226.619 206.31 226.473 206.663H226.474ZM158.751 205.635C158.541 205.321 158.33 204.997 158.123 204.675L158.203 204.623C158.409 204.946 158.62 205.268 158.83 205.582L158.751 205.635H158.751ZM227.503 204.623L227.421 204.573C227.621 204.245 227.835 203.922 228.058 203.616L228.135 203.672C227.914 203.976 227.701 204.297 227.503 204.623ZM157.514 203.703C157.315 203.377 157.117 203.046 156.925 202.718L157.008 202.669C157.199 202.996 157.397 203.327 157.596 203.652L157.515 203.702L157.514 203.703ZM228.845 202.777L228.773 202.715L228.786 202.7C229.033 202.418 229.291 202.139 229.554 201.872L229.622 201.939C229.36 202.205 229.103 202.482 228.858 202.764L228.845 202.778V202.777ZM156.355 201.722C156.169 201.389 155.983 201.05 155.804 200.715L155.888 200.67C156.066 201.004 156.251 201.343 156.437 201.675L156.354 201.722H156.355ZM230.447 201.151L230.383 201.08C230.666 200.827 230.961 200.577 231.26 200.339L231.319 200.414C231.021 200.651 230.728 200.899 230.446 201.151H230.447ZM232.234 199.729L232.179 199.651C232.488 199.434 232.81 199.22 233.136 199.016L233.186 199.097C232.861 199.3 232.541 199.513 232.234 199.729ZM155.273 199.697C155.101 199.359 154.929 199.013 154.762 198.669L154.848 198.627C155.014 198.971 155.186 199.316 155.358 199.654L155.273 199.697ZM234.171 198.516L234.125 198.433C234.456 198.249 234.798 198.07 235.143 197.901L235.185 197.987C234.842 198.156 234.5 198.334 234.171 198.516ZM154.272 197.631C154.113 197.285 153.955 196.933 153.802 196.583L153.89 196.545C154.042 196.894 154.2 197.246 154.359 197.591L154.272 197.631ZM236.223 197.506L236.186 197.418C236.531 197.268 236.889 197.121 237.248 196.984L237.283 197.073C236.924 197.211 236.568 197.357 236.223 197.506ZM238.358 196.684L238.328 196.594C238.685 196.474 239.053 196.357 239.422 196.248L239.449 196.34C239.081 196.449 238.714 196.565 238.358 196.684ZM240.553 196.036L240.529 195.943C240.893 195.85 241.268 195.76 241.646 195.677L241.666 195.771C241.29 195.854 240.916 195.943 240.553 196.036ZM242.789 195.543L242.771 195.448C243.141 195.38 243.522 195.314 243.902 195.255L243.917 195.349C243.538 195.408 243.158 195.473 242.789 195.543ZM153.353 195.527C153.207 195.175 153.062 194.816 152.924 194.462L153.013 194.427C153.151 194.78 153.295 195.138 153.441 195.49L153.353 195.527ZM268.187 195.518H267.917V195.422H268.164C268.465 195.424 268.763 195.421 269.062 195.417L269.063 195.512C268.771 195.517 268.479 195.518 268.187 195.518ZM266.771 195.505C266.404 195.499 266.018 195.489 265.625 195.476L265.628 195.38C266.021 195.393 266.406 195.402 266.773 195.409L266.771 195.505ZM270.209 195.485L270.205 195.389C270.592 195.376 270.976 195.36 271.349 195.339L271.354 195.435C270.981 195.455 270.596 195.472 270.209 195.485V195.485ZM264.48 195.435C264.098 195.419 263.717 195.401 263.335 195.382L263.34 195.287C263.722 195.306 264.103 195.323 264.484 195.339L264.48 195.435ZM272.498 195.359L272.491 195.264C272.875 195.234 273.258 195.198 273.63 195.159L273.64 195.254C273.268 195.293 272.883 195.329 272.498 195.359ZM262.192 195.322C261.81 195.301 261.43 195.279 261.048 195.257L261.054 195.161C261.436 195.184 261.816 195.207 262.198 195.227L262.193 195.322H262.192ZM245.05 195.189L245.037 195.094C245.411 195.047 245.794 195.003 246.177 194.965L246.187 195.06C245.804 195.098 245.422 195.142 245.05 195.189V195.189ZM259.905 195.187L258.761 195.117L258.767 195.022L259.91 195.092L259.905 195.187ZM274.778 195.119L274.766 195.025C275.141 194.974 275.521 194.918 275.896 194.856L275.912 194.951C275.535 195.012 275.154 195.069 274.778 195.119ZM257.618 195.05C257.237 195.028 256.856 195.006 256.475 194.987L256.48 194.892C256.861 194.911 257.243 194.933 257.623 194.955L257.618 195.05H257.618ZM247.326 194.961L247.319 194.865C247.694 194.838 248.079 194.814 248.462 194.794L248.467 194.889C248.084 194.909 247.7 194.933 247.325 194.961H247.326ZM255.331 194.931C254.95 194.914 254.568 194.898 254.188 194.884L254.191 194.788C254.572 194.802 254.954 194.818 255.335 194.835L255.331 194.931ZM253.043 194.85C252.653 194.84 252.267 194.833 251.899 194.83V194.734C252.269 194.738 252.654 194.745 253.046 194.754L253.043 194.85ZM249.611 194.846L249.608 194.75C249.94 194.741 250.278 194.735 250.614 194.733H250.754V194.827H250.614C250.279 194.83 249.941 194.837 249.611 194.846ZM277.041 194.749L277.023 194.655C277.396 194.583 277.772 194.504 278.142 194.421L278.163 194.514C277.793 194.597 277.415 194.676 277.041 194.749ZM279.277 194.248L279.253 194.155C279.621 194.062 279.992 193.961 280.358 193.857L280.384 193.949C280.018 194.053 279.646 194.154 279.277 194.248ZM281.478 193.619L281.45 193.528C281.811 193.413 282.175 193.293 282.532 193.168L282.563 193.258C282.205 193.383 281.84 193.504 281.478 193.619ZM152.516 193.388C152.385 193.033 152.255 192.668 152.13 192.308L152.22 192.276C152.345 192.637 152.474 193.001 152.605 193.356L152.516 193.388ZM283.638 192.866L283.604 192.777C283.959 192.642 284.316 192.5 284.666 192.356L284.702 192.445C284.352 192.589 283.993 192.731 283.638 192.866ZM285.755 191.994L285.717 191.907C286.064 191.752 286.413 191.592 286.756 191.428L286.797 191.515C286.454 191.679 286.103 191.839 285.755 191.994ZM151.765 191.219C151.647 190.854 151.531 190.486 151.421 190.123L151.512 190.095C151.622 190.458 151.738 190.826 151.855 191.189L151.765 191.219ZM287.824 191.007L287.781 190.922C288.116 190.75 288.458 190.571 288.793 190.389L288.839 190.472C288.503 190.655 288.161 190.836 287.824 191.007ZM289.84 189.911L289.793 189.829C290.119 189.64 290.451 189.443 290.778 189.244L290.828 189.326C290.5 189.526 290.168 189.724 289.84 189.912V189.911ZM151.1 189.02C150.998 188.655 150.896 188.282 150.8 187.911L150.893 187.887C150.989 188.257 151.089 188.63 151.192 188.995L151.101 189.021L151.1 189.02ZM291.8 188.714L291.748 188.634C292.065 188.429 292.387 188.215 292.704 188L292.758 188.078C292.44 188.295 292.118 188.509 291.801 188.714H291.8ZM293.698 187.421L293.643 187.343C293.951 187.122 294.262 186.893 294.567 186.664L294.624 186.74C294.319 186.971 294.007 187.199 293.698 187.421ZM150.522 186.798C150.434 186.427 150.348 186.05 150.267 185.678L150.36 185.658C150.441 186.03 150.527 186.406 150.614 186.775L150.522 186.798ZM295.535 186.037L295.476 185.962C295.774 185.727 296.074 185.484 296.368 185.24L296.428 185.314C296.134 185.558 295.833 185.801 295.535 186.037ZM297.307 184.572L297.245 184.5C297.531 184.252 297.82 183.996 298.104 183.739L298.168 183.81C297.883 184.067 297.593 184.324 297.307 184.573V184.572ZM150.035 184.553C149.962 184.181 149.892 183.8 149.825 183.424L149.919 183.407C149.986 183.784 150.056 184.163 150.129 184.535L150.036 184.554L150.035 184.553ZM299.012 183.028L298.946 182.959C299.221 182.7 299.499 182.431 299.772 182.162L299.84 182.23C299.565 182.5 299.287 182.768 299.012 183.028ZM149.639 182.29C149.581 181.914 149.526 181.531 149.475 181.154L149.57 181.141C149.62 181.519 149.675 181.9 149.733 182.276L149.639 182.291V182.29ZM300.65 181.414L300.581 181.347C300.846 181.075 301.112 180.795 301.374 180.516L301.443 180.581C301.182 180.861 300.914 181.141 300.649 181.414H300.65ZM149.335 180.014C149.292 179.633 149.253 179.248 149.219 178.871L149.314 178.862C149.348 179.239 149.387 179.622 149.43 180.003L149.335 180.014ZM302.22 179.733L302.149 179.669C302.401 179.387 302.656 179.098 302.907 178.806L302.979 178.868C302.728 179.16 302.472 179.45 302.219 179.732L302.22 179.733ZM303.722 177.99L303.649 177.929C303.891 177.637 304.135 177.337 304.373 177.038L304.447 177.098C304.209 177.397 303.965 177.697 303.722 177.991V177.99ZM149.126 177.727C149.099 177.347 149.076 176.961 149.058 176.58L149.153 176.575C149.172 176.955 149.195 177.34 149.221 177.719L149.126 177.726V177.727ZM305.156 176.191L305.08 176.132C305.312 175.83 305.544 175.521 305.77 175.215L305.846 175.271C305.62 175.579 305.388 175.888 305.156 176.191ZM149.014 175.433C149.003 175.052 148.997 174.666 148.994 174.285H149.09C149.093 174.665 149.099 175.05 149.11 175.43L149.014 175.433ZM306.519 174.34L306.442 174.285C306.661 173.976 306.881 173.658 307.096 173.342L307.175 173.396C306.959 173.712 306.739 174.03 306.519 174.34H306.519ZM149.095 173.138L148.999 173.137C149.005 172.756 149.015 172.37 149.03 171.989L149.125 171.992C149.112 172.372 149.102 172.758 149.095 173.138V173.138ZM307.814 172.44L307.735 172.387C307.943 172.071 308.152 171.746 308.355 171.422L308.437 171.473C308.232 171.798 308.023 172.122 307.815 172.44H307.814ZM149.18 170.847L149.085 170.841C149.107 170.459 149.134 170.074 149.166 169.696L149.261 169.703C149.23 170.08 149.203 170.466 149.18 170.846V170.847ZM309.04 170.495L308.958 170.445C309.154 170.122 309.351 169.79 309.544 169.459L309.627 169.507C309.434 169.839 309.236 170.171 309.04 170.495ZM149.365 168.562L149.27 168.552C149.289 168.368 149.31 168.184 149.331 168C149.353 167.804 149.377 167.608 149.4 167.412L149.495 167.423C149.471 167.619 149.448 167.815 149.426 168.01C149.405 168.194 149.385 168.379 149.365 168.562ZM310.196 168.51L310.112 168.463C310.297 168.132 310.483 167.793 310.663 167.457L310.747 167.502C310.567 167.839 310.382 168.178 310.196 168.51ZM311.28 166.485L311.195 166.442C311.37 166.104 311.542 165.758 311.711 165.417L311.797 165.46C311.628 165.802 311.455 166.147 311.28 166.486V166.485ZM149.645 166.286L149.551 166.273C149.603 165.904 149.658 165.522 149.717 165.139L149.811 165.153C149.752 165.537 149.697 165.918 149.645 166.287V166.286ZM312.295 164.426L312.209 164.385C312.372 164.04 312.534 163.69 312.689 163.344L312.776 163.384C312.62 163.73 312.458 164.081 312.295 164.426ZM149.992 164.022L149.897 164.006C149.96 163.63 150.023 163.253 150.09 162.875L150.184 162.892C150.118 163.269 150.054 163.645 149.992 164.022H149.992ZM313.238 162.333L313.151 162.295C313.301 161.947 313.451 161.591 313.595 161.239L313.683 161.275C313.538 161.628 313.389 161.984 313.238 162.333ZM150.385 161.764L150.291 161.747C150.36 161.371 150.429 160.995 150.5 160.619L150.594 160.637C150.524 161.014 150.454 161.389 150.385 161.765V161.764ZM314.109 160.211L314.02 160.176C314.159 159.823 314.295 159.463 314.428 159.106L314.517 159.14C314.385 159.497 314.248 159.857 314.109 160.212V160.211ZM150.808 159.51L150.714 159.491C150.786 159.116 150.858 158.74 150.93 158.365L151.025 158.383C150.952 158.758 150.88 159.134 150.808 159.51ZM314.907 158.061L314.817 158.029C314.942 157.673 315.066 157.309 315.187 156.946L315.278 156.976C315.156 157.34 315.032 157.705 314.907 158.06V158.061ZM151.242 157.257L151.148 157.239C151.221 156.863 151.293 156.488 151.365 156.112L151.459 156.13C151.387 156.506 151.315 156.881 151.242 157.257ZM315.63 155.886L315.539 155.857C315.653 155.494 315.765 155.125 315.871 154.762L315.963 154.789C315.856 155.153 315.744 155.521 315.63 155.886ZM151.673 155.002L151.579 154.984C151.649 154.607 151.72 154.231 151.788 153.855L151.882 153.872C151.813 154.249 151.743 154.625 151.672 155.002H151.673ZM316.276 153.688L316.184 153.662C316.285 153.297 316.384 152.924 316.478 152.557L316.57 152.581C316.476 152.949 316.377 153.321 316.276 153.688H316.276ZM152.084 152.741L151.99 152.725C152.056 152.347 152.12 151.97 152.183 151.593L152.277 151.609C152.215 151.986 152.15 152.363 152.084 152.741ZM316.845 151.468L316.753 151.446C316.842 151.075 316.93 150.699 317.013 150.33L317.106 150.351C317.023 150.722 316.935 151.098 316.846 151.469L316.845 151.468ZM152.459 150.475L152.365 150.46C152.424 150.076 152.48 149.693 152.532 149.324L152.627 149.337C152.574 149.707 152.518 150.089 152.459 150.475ZM317.35 149.229L317.257 149.209C317.336 148.838 317.413 148.46 317.486 148.086L317.58 148.105C317.506 148.479 317.429 148.857 317.35 149.229ZM152.779 148.198L152.684 148.186C152.732 147.801 152.777 147.418 152.817 147.045L152.912 147.056C152.872 147.429 152.827 147.813 152.779 148.198ZM317.794 146.976L317.7 146.959C317.768 146.588 317.835 146.209 317.899 145.83L317.993 145.846C317.928 146.225 317.861 146.606 317.793 146.976H317.794ZM153.024 145.911L152.929 145.903C152.963 145.517 152.993 145.133 153.017 144.76L153.112 144.766C153.087 145.139 153.058 145.525 153.024 145.912V145.911ZM318.178 144.714L318.084 144.699C318.143 144.321 318.2 143.94 318.254 143.565L318.348 143.579C318.294 143.954 318.237 144.336 318.178 144.714ZM153.173 143.619L153.078 143.615C153.093 143.228 153.103 142.842 153.108 142.469H153.204C153.2 142.845 153.189 143.231 153.173 143.619H153.173ZM318.505 142.441L318.41 142.429C318.459 142.054 318.506 141.672 318.552 141.292L318.647 141.303C318.602 141.684 318.554 142.067 318.505 142.442V142.441ZM153.103 141.323C153.096 140.937 153.082 140.552 153.062 140.177L153.157 140.172C153.177 140.548 153.191 140.934 153.198 141.321L153.102 141.323H153.103ZM318.775 140.161L318.681 140.152C318.721 139.774 318.76 139.389 318.796 139.011L318.891 139.02C318.855 139.399 318.816 139.783 318.775 140.162V140.161ZM152.981 139.035C152.947 138.651 152.904 138.268 152.855 137.896L152.95 137.883C152.999 138.256 153.042 138.641 153.076 139.026L152.981 139.034V139.035ZM318.992 137.876L318.897 137.868C318.929 137.494 318.959 137.109 318.987 136.725L319.082 136.731C319.054 137.117 319.024 137.501 318.992 137.876ZM152.681 136.764C152.615 136.387 152.54 136.009 152.457 135.641L152.55 135.621C152.633 135.99 152.709 136.369 152.776 136.748L152.681 136.764ZM319.159 135.586L319.064 135.581C319.087 135.199 319.109 134.817 319.128 134.436L319.223 134.441C319.204 134.823 319.182 135.205 319.159 135.587V135.586ZM152.179 134.531C152.077 134.162 151.964 133.794 151.845 133.437L151.936 133.407C152.056 133.765 152.168 134.135 152.271 134.505L152.18 134.531H152.179ZM319.276 133.293L319.181 133.289C319.196 132.907 319.21 132.525 319.222 132.143L319.318 132.146C319.306 132.529 319.293 132.911 319.276 133.293ZM151.453 132.362C151.313 132.007 151.161 131.654 151.002 131.31L151.089 131.27C151.248 131.615 151.4 131.971 151.541 132.326L151.453 132.362ZM319.348 130.998L319.252 130.996C319.26 130.613 319.267 130.231 319.272 129.848H319.367C319.362 130.232 319.357 130.615 319.348 130.997V130.998ZM150.494 130.286C150.316 129.952 150.126 129.617 149.928 129.292L150.01 129.242C150.208 129.569 150.4 129.905 150.579 130.241L150.495 130.286H150.494ZM319.376 128.703H319.28C319.28 128.575 319.28 128.448 319.28 128.321C319.28 128.066 319.28 127.81 319.277 127.554H319.373C319.375 127.81 319.376 128.065 319.376 128.321C319.376 128.448 319.376 128.575 319.376 128.703ZM149.307 128.332C149.093 128.02 148.866 127.71 148.633 127.409L148.708 127.35C148.942 127.652 149.17 127.965 149.386 128.277L149.307 128.331V128.332ZM147.908 126.526C147.662 126.242 147.401 125.959 147.135 125.682L147.204 125.616C147.472 125.893 147.733 126.178 147.98 126.464L147.908 126.527V126.526ZM319.267 126.408C319.261 126.026 319.254 125.643 319.245 125.261L319.341 125.258C319.35 125.641 319.357 126.024 319.362 126.406L319.267 126.408ZM146.321 124.879C146.049 124.624 145.763 124.368 145.47 124.116L145.533 124.043C145.826 124.295 146.114 124.553 146.386 124.809L146.321 124.879V124.879ZM319.215 124.113C319.204 123.731 319.19 123.349 319.176 122.967L319.272 122.963C319.286 123.346 319.299 123.728 319.312 124.11L319.216 124.113H319.215ZM144.588 123.391C144.297 123.161 143.991 122.929 143.678 122.7L143.735 122.623C144.048 122.853 144.355 123.086 144.648 123.316L144.589 123.392L144.588 123.391ZM142.745 122.041C142.442 121.834 142.121 121.621 141.792 121.41L141.844 121.33C142.173 121.542 142.494 121.754 142.799 121.962L142.745 122.041ZM319.127 121.821C319.109 121.438 319.09 121.056 319.07 120.674L319.165 120.669C319.186 121.051 319.204 121.433 319.222 121.816L319.127 121.821ZM140.823 120.805C140.51 120.615 140.18 120.419 139.841 120.221L139.889 120.139C140.23 120.336 140.56 120.533 140.873 120.723L140.823 120.805ZM138.847 119.656C138.53 119.478 138.193 119.293 137.845 119.104L137.891 119.021C138.24 119.21 138.577 119.396 138.895 119.573L138.848 119.656L138.847 119.656ZM319.006 119.528C318.983 119.146 318.958 118.765 318.933 118.383L319.028 118.376C319.053 118.758 319.078 119.141 319.1 119.522L319.006 119.528V119.528ZM136.836 118.564C136.499 118.385 136.161 118.208 135.822 118.031L135.866 117.946C136.205 118.124 136.543 118.302 136.88 118.48L136.835 118.564H136.836ZM134.807 117.501L133.791 116.973L133.835 116.889L134.851 117.417L134.807 117.501ZM318.852 117.239C318.825 116.857 318.795 116.476 318.765 116.095L318.86 116.087C318.89 116.469 318.92 116.851 318.947 117.232L318.852 117.239ZM132.775 116.442C132.437 116.264 132.098 116.085 131.762 115.904L131.807 115.819C132.143 116 132.481 116.178 132.82 116.356L132.775 116.441L132.775 116.442ZM130.753 115.357C130.406 115.166 130.069 114.977 129.752 114.797L129.799 114.714C130.116 114.894 130.452 115.082 130.799 115.273L130.753 115.357ZM318.671 114.951C318.638 114.569 318.604 114.189 318.57 113.808L318.665 113.799C318.699 114.18 318.734 114.561 318.766 114.943L318.671 114.951ZM128.759 114.221C128.422 114.022 128.091 113.821 127.777 113.626L127.827 113.544C128.141 113.739 128.47 113.94 128.807 114.139L128.759 114.221ZM126.809 113.007C126.484 112.793 126.164 112.577 125.859 112.363L125.914 112.284C126.218 112.497 126.537 112.713 126.862 112.927L126.809 113.006V113.007ZM318.463 112.665C318.426 112.285 318.388 111.904 318.35 111.524L318.445 111.514C318.483 111.894 318.521 112.276 318.558 112.656L318.463 112.665ZM124.929 111.689C124.618 111.456 124.314 111.219 124.023 110.985L124.083 110.91C124.372 111.144 124.676 111.38 124.986 111.613L124.928 111.689H124.929ZM318.23 110.382C318.189 110.002 318.148 109.622 318.106 109.241L318.201 109.231C318.243 109.611 318.284 109.992 318.325 110.372L318.23 110.382ZM123.145 110.247C122.859 109.997 122.572 109.738 122.295 109.476L122.36 109.406C122.637 109.667 122.923 109.925 123.208 110.175L123.145 110.247ZM121.472 108.671C121.205 108.4 120.938 108.12 120.681 107.837L120.751 107.773C121.009 108.054 121.274 108.334 121.54 108.604L121.472 108.671ZM317.977 108.101C317.932 107.722 317.888 107.342 317.842 106.962L317.937 106.95C317.983 107.33 318.028 107.709 318.072 108.09L317.977 108.101V108.101ZM119.92 106.976C119.675 106.688 119.43 106.389 119.191 106.088L119.265 106.028C119.503 106.328 119.748 106.626 119.992 106.913L119.919 106.976H119.92ZM317.703 105.822C317.656 105.443 317.608 105.064 317.56 104.684L317.655 104.672C317.703 105.052 317.751 105.431 317.798 105.81L317.703 105.822V105.822ZM118.493 105.177C118.269 104.874 118.045 104.56 117.826 104.244L117.905 104.19C118.122 104.505 118.346 104.818 118.569 105.12L118.492 105.177H118.493ZM317.413 103.547C317.363 103.168 317.313 102.788 317.262 102.409L317.357 102.397C317.408 102.776 317.458 103.156 317.507 103.534L317.413 103.547ZM117.19 103.29C116.985 102.972 116.781 102.645 116.583 102.317L116.665 102.268C116.863 102.595 117.066 102.921 117.27 103.238L117.19 103.29ZM116.006 101.327C115.821 101 115.636 100.661 115.456 100.321L115.541 100.276C115.72 100.615 115.905 100.953 116.089 101.279L116.006 101.326V101.327ZM317.106 101.273C317.055 100.894 317.002 100.515 316.948 100.136L317.043 100.123C317.096 100.502 317.148 100.881 317.201 101.26L317.106 101.273ZM114.933 99.3021C114.765 98.9642 114.598 98.6165 114.436 98.2696L114.523 98.2294C114.684 98.5755 114.851 98.9224 115.018 99.2594L114.933 99.3021ZM316.788 99.0011C316.734 98.6222 316.68 98.2442 316.625 97.8661L316.719 97.8522C316.774 98.231 316.829 98.6091 316.882 98.988L316.788 99.0011ZM113.966 97.2256C113.815 96.8804 113.663 96.5261 113.518 96.171L113.606 96.1349C113.752 96.4892 113.903 96.8435 114.053 97.1871L113.966 97.2256ZM316.459 96.7303C316.403 96.3523 316.348 95.9734 316.291 95.5953L316.385 95.5814C316.442 95.9594 316.497 96.3375 316.553 96.7164L316.459 96.7303ZM113.092 95.1074C112.955 94.7548 112.819 94.3939 112.689 94.0356L112.779 94.0027C112.91 94.3611 113.045 94.7211 113.181 95.0729L113.092 95.1074ZM316.122 94.4612C316.064 94.0831 316.008 93.7051 315.951 93.327L316.045 93.3122C316.102 93.6903 316.159 94.0684 316.216 94.4464L316.122 94.4603V94.4612ZM112.305 92.9555C112.183 92.5996 112.061 92.2338 111.942 91.8689L112.033 91.8394C112.152 92.2035 112.273 92.5684 112.396 92.9243L112.306 92.9555H112.305ZM315.778 92.1937C315.72 91.8156 315.662 91.4376 315.604 91.0603L315.698 91.0455C315.756 91.4236 315.815 91.8008 315.872 92.1789L315.778 92.1937ZM111.596 90.7757C111.485 90.4157 111.375 90.0459 111.267 89.6777L111.359 89.6506C111.466 90.0188 111.577 90.3878 111.687 90.747L111.597 90.7749L111.596 90.7757ZM315.429 89.927L315.254 88.7936L315.28 88.7895L315.332 88.7485L315.346 88.7666L315.523 89.9122L315.429 89.927ZM110.955 88.5747C110.855 88.2122 110.755 87.8399 110.658 87.4676L110.75 87.443C110.847 87.8153 110.947 88.1868 111.047 88.5492L110.956 88.5747H110.955ZM314.55 87.9055L313.842 87.0034L313.917 86.9444L314.625 87.8464L314.55 87.9055ZM110.374 86.3555C110.283 85.9882 110.192 85.6134 110.104 85.2402L110.197 85.2181C110.285 85.5904 110.376 85.9652 110.467 86.3318L110.374 86.3547V86.3555ZM313.134 86.1013L312.426 85.1992L312.501 85.1402L313.209 86.0423L313.134 86.1013ZM311.717 84.298L311.009 83.3959L311.085 83.3369L311.793 84.2389L311.717 84.298ZM109.845 84.1225C109.76 83.7494 109.678 83.3754 109.597 83.0014L109.691 82.9809C109.771 83.3549 109.854 83.728 109.938 84.1012L109.845 84.1225ZM310.302 82.4938L309.594 81.5917L309.669 81.5327L310.377 82.4348L310.302 82.4938ZM109.36 81.8779C109.282 81.5032 109.206 81.1276 109.132 80.752L109.225 80.7331C109.3 81.1087 109.376 81.4835 109.453 81.8583L109.36 81.8779ZM308.886 80.6896L308.178 79.7876L308.253 79.7285L308.961 80.6306L308.886 80.6896ZM108.911 79.6235C108.839 79.2471 108.768 78.8699 108.699 78.4935L108.793 78.4763C108.862 78.8527 108.934 79.2291 109.006 79.6055L108.911 79.6235ZM307.47 78.8863L306.762 77.9842L306.837 77.9252L307.545 78.8273L307.47 78.8863ZM108.492 77.3626C108.424 76.9845 108.357 76.6073 108.292 76.2301L108.386 76.2137C108.452 76.5909 108.519 76.9681 108.586 77.3462L108.492 77.3634V77.3626ZM306.054 77.0821L305.346 76.1801L305.422 76.121L306.13 77.0231L306.054 77.0821ZM304.638 75.278L303.93 74.3759L304.005 74.3168L304.714 75.2189L304.638 75.278ZM108.096 75.0951C108.031 74.7162 107.968 74.339 107.904 73.9618L107.998 73.9462C108.062 74.3226 108.126 74.7006 108.19 75.0795L108.096 75.0959V75.0951ZM303.222 73.4738L302.514 72.5717L302.589 72.5127L303.297 73.4148L303.222 73.4738ZM107.715 72.8309C107.652 72.4544 107.59 72.0772 107.529 71.6983L107.623 71.6828C107.684 72.0608 107.746 72.4389 107.809 72.8145L107.715 72.83V72.8309ZM301.807 71.6705L301.099 70.7684L301.174 70.7093L301.882 71.6114L301.807 71.6705ZM107.348 70.5658C107.288 70.1886 107.23 69.8105 107.173 69.4317L107.267 69.4169C107.324 69.7958 107.383 70.1738 107.442 70.5502L107.348 70.565V70.5658ZM300.39 69.8663L299.682 68.9642L299.758 68.9052L300.466 69.8072L300.39 69.8663ZM107.004 68.2958C106.949 67.9178 106.896 67.5389 106.844 67.1592L106.938 67.1461C106.99 67.525 107.043 67.9039 107.098 68.2819L107.004 68.2958ZM298.975 68.0621L298.267 67.16L298.342 67.101L299.05 68.0031L298.975 68.0621ZM297.559 66.258L296.851 65.3559L296.926 65.2968L297.634 66.1989L297.559 66.258ZM106.692 66.0218C106.644 65.6429 106.596 65.2624 106.551 64.8827L106.646 64.8712C106.691 65.2509 106.738 65.6306 106.787 66.0095L106.692 66.0218ZM296.143 64.4546L295.435 63.5525L295.51 63.4935L296.218 64.3956L296.143 64.4546ZM106.423 63.742C106.381 63.3533 106.342 62.9686 106.307 62.5996L106.402 62.5906C106.437 62.9596 106.476 63.3434 106.518 63.7313L106.423 63.742ZM294.727 62.6505L294.019 61.7484L294.095 61.6893L294.803 62.5914L294.727 62.6505ZM106.205 61.4564C106.173 61.0702 106.145 60.6847 106.119 60.3116L106.214 60.305C106.24 60.6782 106.268 61.0628 106.3 61.449L106.205 61.4572V61.4564ZM293.361 60.8004L293.344 60.7389C293.246 60.3936 293.142 60.0451 293.032 59.7039L293.123 59.6744C293.233 60.0172 293.338 60.3665 293.436 60.7126L293.454 60.7741L293.362 60.8004H293.361ZM106.05 59.1651C106.029 58.7805 106.012 58.3943 105.999 58.0178L106.095 58.0146C106.108 58.3902 106.125 58.7756 106.145 59.1602L106.05 59.1651H106.05ZM292.66 58.6198C292.531 58.2631 292.393 57.9039 292.249 57.5512L292.338 57.5151C292.482 57.8686 292.62 58.2294 292.75 58.587L292.66 58.6198ZM105.969 56.8697C105.963 56.5253 105.96 56.1768 105.96 55.834V55.7208H106.055V55.8332C106.055 56.176 106.059 56.5237 106.064 56.8673L105.969 56.8689V56.8697ZM291.799 56.5015C291.644 56.1571 291.479 55.8102 291.31 55.4691L291.395 55.4264C291.565 55.7684 291.73 56.1169 291.886 56.4622L291.799 56.5015ZM106.069 54.5752L105.974 54.5727C105.983 54.1856 105.996 53.7986 106.013 53.4246L106.108 53.4287C106.091 53.8027 106.077 54.1881 106.068 54.5744L106.069 54.5752ZM290.781 54.4554C290.599 54.1225 290.408 53.7879 290.214 53.4623L290.296 53.4131C290.491 53.7395 290.682 54.0749 290.864 54.4087L290.781 54.4546V54.4554ZM289.61 52.4922C289.405 52.1748 289.19 51.8566 288.97 51.545L289.048 51.4901C289.268 51.8025 289.483 52.1223 289.69 52.4405L289.609 52.493L289.61 52.4922ZM106.174 52.2847L106.079 52.2781C106.106 51.8919 106.138 51.5065 106.174 51.1333L106.269 51.1423C106.233 51.5155 106.201 51.9001 106.175 52.2847H106.174ZM288.295 50.6216C288.065 50.3198 287.826 50.018 287.585 49.7253L287.659 49.6646C287.901 49.959 288.141 50.2616 288.371 50.5642L288.295 50.6224V50.6216ZM106.393 50.0024L106.298 49.991C106.345 49.6104 106.398 49.2275 106.456 48.8527L106.551 48.8675C106.493 49.2406 106.44 49.6227 106.393 50.0024ZM286.841 48.856C286.59 48.5739 286.329 48.2909 286.065 48.0154L286.134 47.949C286.398 48.2253 286.66 48.5091 286.912 48.792L286.841 48.8552V48.856ZM106.742 47.7374L106.648 47.7202C106.718 47.3413 106.795 46.9624 106.876 46.5942L106.97 46.6147C106.889 46.9813 106.812 47.3593 106.742 47.7374ZM285.259 47.2052C284.986 46.9411 284.704 46.6787 284.422 46.4253L284.486 46.3539C284.769 46.6081 285.051 46.8714 285.326 47.1363L285.259 47.2052H285.259ZM283.556 45.6765C283.264 45.4338 282.963 45.1935 282.663 44.9614L282.721 44.886C283.023 45.1181 283.324 45.36 283.617 45.6036L283.557 45.6774L283.556 45.6765ZM107.237 45.4994L107.144 45.4756C107.24 45.1041 107.343 44.731 107.45 44.3685L107.542 44.3956C107.435 44.7572 107.332 45.1287 107.237 45.4994ZM281.742 44.2808C281.432 44.061 281.115 43.8437 280.797 43.6346L280.85 43.555C281.168 43.7641 281.487 43.9823 281.798 44.2029L281.742 44.2808ZM107.889 43.3049L107.799 43.2737C107.923 42.9096 108.054 42.5463 108.189 42.1937L108.279 42.2281C108.144 42.5799 108.013 42.9424 107.889 43.3049ZM279.829 43.0252C279.504 42.8284 279.17 42.6357 278.838 42.452L278.884 42.3684C279.217 42.5529 279.551 42.7464 279.878 42.9432L279.829 43.0252ZM277.826 41.9165C277.487 41.7451 277.14 41.5778 276.794 41.4195L276.834 41.3326C277.181 41.4917 277.529 41.6598 277.869 41.8312L277.826 41.9165ZM108.712 41.1678L108.624 41.13C108.776 40.7782 108.938 40.4272 109.104 40.0861L109.19 40.1279C109.025 40.4674 108.864 40.8176 108.713 41.1678H108.712ZM275.746 40.9619C275.396 40.8168 275.037 40.6765 274.68 40.5437L274.713 40.4543C275.072 40.5872 275.431 40.7282 275.782 40.8742L275.746 40.9627V40.9619ZM273.598 40.1656C273.239 40.0475 272.871 39.9344 272.504 39.8286L272.53 39.7367C272.898 39.8425 273.268 39.9565 273.629 40.0746L273.599 40.1656H273.598ZM271.396 39.5334C271.028 39.4423 270.652 39.357 270.279 39.2791L270.299 39.1856C270.673 39.2635 271.05 39.3488 271.419 39.4399L271.396 39.5325V39.5334ZM109.711 39.1094L109.628 39.0635C109.809 38.7272 110.001 38.3918 110.197 38.0662L110.279 38.1154C110.084 38.4402 109.893 38.774 109.712 39.1094H109.711ZM269.153 39.0676C268.778 39.0044 268.398 38.947 268.022 38.8986L268.034 38.8035C268.412 38.8527 268.793 38.9101 269.169 38.9732L269.153 39.0676H269.153ZM266.886 38.7444C266.514 38.6911 266.133 38.6346 265.752 38.5747L265.767 38.4804C266.147 38.5394 266.528 38.5968 266.9 38.6493L266.887 38.7436L266.886 38.7444ZM264.619 38.391C264.247 38.3278 263.867 38.2614 263.489 38.1925L263.506 38.0982C263.883 38.1671 264.263 38.2335 264.635 38.2967L264.619 38.391ZM262.361 37.9801C261.988 37.908 261.61 37.8317 261.236 37.7546L261.255 37.6611C261.628 37.7382 262.006 37.8137 262.379 37.8858L262.361 37.9801ZM260.113 37.5168C259.74 37.4356 259.366 37.3528 258.993 37.2675L259.014 37.174C259.387 37.2593 259.76 37.3421 260.133 37.4233L260.113 37.5168H260.113ZM110.888 37.1494L110.809 37.0961C110.944 36.8927 111.085 36.6869 111.228 36.4843C111.307 36.3736 111.386 36.2629 111.466 36.1538L111.543 36.2104C111.463 36.3195 111.384 36.4294 111.307 36.5393C111.164 36.741 111.023 36.946 110.889 37.1486L110.888 37.1494ZM257.875 37.0067C257.504 36.9181 257.132 36.8279 256.76 36.7353L256.783 36.6426C257.155 36.7344 257.527 36.8255 257.898 36.914L257.875 37.0067ZM255.647 36.4532C255.277 36.358 254.907 36.2604 254.537 36.162L254.562 36.0694C254.932 36.1678 255.301 36.2645 255.671 36.3597L255.647 36.4523V36.4532ZM253.429 35.8627C253.06 35.761 252.692 35.6585 252.324 35.5544L252.35 35.4625C252.718 35.5667 253.087 35.6692 253.455 35.7709L253.43 35.8627H253.429ZM112.242 35.3018L112.167 35.2419C112.406 34.945 112.656 34.649 112.909 34.3636L112.98 34.4267C112.728 34.7113 112.48 35.0065 112.242 35.3026V35.3018ZM251.219 35.2386C250.853 35.132 250.485 35.0246 250.118 34.9155L250.145 34.8237C250.512 34.9327 250.879 35.0402 251.246 35.1468L251.219 35.2386ZM249.02 34.585C248.654 34.4743 248.289 34.362 247.923 34.2488L247.951 34.1578C248.316 34.2709 248.682 34.3833 249.047 34.494L249.019 34.5858L249.02 34.585ZM246.828 33.9068C246.463 33.792 246.098 33.6764 245.734 33.5591L245.763 33.4681C246.128 33.5845 246.492 33.7002 246.856 33.8158L246.828 33.9068ZM113.756 33.5854L113.687 33.5189C113.95 33.2458 114.224 32.9736 114.502 32.7095L114.567 32.7784C114.291 33.0416 114.017 33.3131 113.755 33.5845L113.756 33.5854ZM244.643 33.2065C244.279 33.0884 243.916 32.9695 243.552 32.8497L243.582 32.7587C243.945 32.8784 244.308 32.9974 244.671 33.1154L244.642 33.2065H244.643ZM242.464 32.4897C242.101 32.3692 241.738 32.2478 241.376 32.1264L241.407 32.0354C241.769 32.1568 242.131 32.2782 242.494 32.3987L242.464 32.4897ZM115.413 32.0075L115.35 31.9354C115.634 31.6861 115.929 31.4376 116.227 31.1965L116.287 31.2711C115.99 31.5114 115.695 31.7599 115.413 32.0075ZM240.289 31.7599C239.928 31.6377 239.566 31.5138 239.204 31.3908L239.235 31.3006C239.597 31.4245 239.959 31.5475 240.32 31.6697L240.29 31.7599H240.289ZM238.12 31.0193C237.759 30.8955 237.397 30.7709 237.036 30.647L237.067 30.5568C237.428 30.6815 237.79 30.8053 238.151 30.9291L238.12 31.0193ZM117.189 30.5683L117.132 30.492C117.433 30.2665 117.746 30.0402 118.062 29.8212L118.116 29.8999C117.802 30.1189 117.489 30.3436 117.189 30.5691V30.5683ZM235.952 30.2731L234.869 29.8983L234.9 29.8081L235.983 30.1829L235.952 30.2731ZM233.787 29.5243L232.705 29.1496L232.736 29.0594L233.818 29.4341L233.787 29.5243ZM119.066 29.2627L119.015 29.1824C119.33 28.9782 119.657 28.7748 119.987 28.5763L120.036 28.6583C119.707 28.856 119.381 29.0602 119.066 29.2627ZM231.622 28.7756C231.261 28.651 230.9 28.5271 230.539 28.4033L230.57 28.3131C230.931 28.4369 231.292 28.5616 231.653 28.6854L231.622 28.7756ZM121.024 28.0843L120.978 28.0006C121.306 27.8169 121.644 27.6324 121.985 27.4545L122.029 27.5389C121.689 27.7169 121.351 27.9006 121.024 28.0843H121.024ZM229.456 28.0318C229.095 27.908 228.733 27.785 228.372 27.6628L228.402 27.5726C228.763 27.6956 229.125 27.8186 229.486 27.9416L229.455 28.0318H229.456ZM227.288 27.2962C226.926 27.174 226.565 27.0535 226.203 26.9321L226.233 26.8411C226.595 26.9616 226.957 27.083 227.319 27.2052L227.288 27.2954V27.2962ZM123.049 27.0215L123.007 26.9354C123.346 26.7689 123.694 26.6032 124.042 26.4433L124.082 26.5302C123.735 26.6902 123.387 26.855 123.049 27.0215ZM225.117 26.5713C224.754 26.4515 224.392 26.3326 224.029 26.2145L224.059 26.1235C224.422 26.2416 224.784 26.3605 225.146 26.4802L225.117 26.5713ZM125.126 26.0644L125.088 25.9767C125.432 25.8283 125.788 25.679 126.145 25.5339L126.181 25.6224C125.825 25.7676 125.469 25.916 125.126 26.0644ZM222.941 25.8627C222.578 25.7463 222.215 25.6298 221.852 25.515L221.881 25.424C222.244 25.5388 222.607 25.6552 222.971 25.7717L222.941 25.8627ZM127.245 25.2034L127.211 25.114C127.559 24.9803 127.921 24.8458 128.285 24.7146L128.318 24.8048C127.955 24.936 127.594 25.0697 127.246 25.2034H127.245ZM220.76 25.1722C220.396 25.059 220.031 24.9467 219.667 24.8352L219.695 24.7433C220.059 24.8548 220.424 24.9672 220.789 25.0804L220.76 25.1714V25.1722ZM218.573 24.5047C218.207 24.3956 217.842 24.2873 217.476 24.1807L217.503 24.0889C217.869 24.1955 218.234 24.3037 218.6 24.4128L218.573 24.5047ZM129.398 24.4259L129.367 24.3357C129.722 24.2152 130.088 24.0938 130.456 23.9749L130.485 24.0659C130.118 24.184 129.752 24.3054 129.398 24.4259ZM216.377 23.8642C216.01 23.76 215.643 23.6567 215.274 23.555L215.3 23.4632C215.668 23.5649 216.036 23.6682 216.403 23.7723L216.377 23.8642ZM131.578 23.7231L131.55 23.6313C131.909 23.5222 132.279 23.4115 132.649 23.3041L132.676 23.3959C132.305 23.5034 131.936 23.6132 131.578 23.7223V23.7231ZM214.169 23.2549C213.801 23.1556 213.432 23.058 213.063 22.9621L213.086 22.8694C213.456 22.9654 213.825 23.063 214.194 23.1622L214.169 23.2549ZM133.779 23.0851L133.754 22.9933C134.117 22.8932 134.49 22.7932 134.862 22.6956L134.887 22.7882C134.515 22.8858 134.143 22.9859 133.78 23.0859L133.779 23.0851ZM211.953 22.6775C211.583 22.584 211.213 22.4922 210.842 22.4012L210.865 22.3085C211.235 22.3995 211.606 22.4914 211.976 22.5849L211.953 22.6775ZM135.997 22.5029L135.974 22.4102C136.304 22.3274 136.634 22.2462 136.964 22.1666L137.087 22.1371L137.109 22.2298L136.986 22.2593C136.657 22.3388 136.327 22.42 135.997 22.5029ZM209.728 22.1338C209.357 22.0461 208.985 21.9592 208.613 21.8739L208.635 21.7804C209.007 21.8657 209.379 21.9518 209.75 22.0403L209.728 22.133V22.1338ZM138.223 21.9665L138.202 21.873C138.574 21.7869 138.946 21.7016 139.319 21.618L139.34 21.7115C138.967 21.7951 138.595 21.8796 138.223 21.9665ZM207.496 21.6229C207.124 21.5401 206.75 21.4597 206.377 21.3802L206.397 21.2867C206.77 21.3662 207.143 21.4474 207.517 21.5303L207.496 21.6237V21.6229ZM140.458 21.4646L140.438 21.3712C140.811 21.29 141.184 21.2104 141.558 21.1325L141.578 21.226C141.205 21.3039 140.831 21.3835 140.458 21.4646ZM205.256 21.1448C204.882 21.0677 204.508 20.9923 204.134 20.9185L204.153 20.825C204.528 20.8988 204.902 20.9751 205.276 21.0513L205.257 21.1448H205.256ZM142.699 20.9964L142.681 20.9029C143.055 20.8274 143.43 20.7536 143.805 20.6815L143.823 20.7758C143.448 20.8479 143.073 20.9218 142.699 20.9972V20.9964ZM203.01 20.7003C202.635 20.629 202.26 20.5593 201.884 20.4904L201.902 20.3961C202.277 20.465 202.652 20.5347 203.028 20.606L203.01 20.7003ZM144.948 20.5609L144.931 20.4666C145.307 20.3969 145.682 20.3288 146.058 20.2616L146.074 20.3559C145.699 20.4231 145.323 20.4912 144.948 20.5609ZM200.757 20.2887C200.382 20.223 200.005 20.1583 199.628 20.0951L199.644 20.0008C200.021 20.064 200.397 20.1287 200.774 20.1943L200.757 20.2887ZM147.203 20.1591L147.186 20.0648C147.563 20.0008 147.939 19.9377 148.317 19.8762L148.332 19.9705C147.956 20.032 147.579 20.0943 147.203 20.1591ZM198.499 19.9098C198.122 19.8491 197.745 19.7909 197.367 19.7326L197.382 19.6383C197.76 19.6957 198.137 19.7548 198.514 19.8155L198.5 19.9098H198.499ZM149.463 19.7909L149.448 19.6966C149.825 19.6375 150.203 19.5809 150.581 19.5243L150.595 19.6187C150.217 19.6744 149.84 19.7318 149.463 19.7901V19.7909ZM196.234 19.5645C195.856 19.5096 195.479 19.4563 195.101 19.4038L195.114 19.3095C195.492 19.362 195.87 19.4153 196.248 19.4702L196.234 19.5645ZM151.729 19.4555L151.715 19.3612C152.094 19.3078 152.472 19.2562 152.851 19.2062L152.863 19.3013C152.485 19.3513 152.107 19.403 151.729 19.4563V19.4555ZM193.966 19.2521C193.588 19.2029 193.209 19.1545 192.83 19.1086L192.841 19.0134C193.22 19.0602 193.599 19.1077 193.978 19.157L193.966 19.2521ZM153.999 19.1537L153.986 19.0585C154.365 19.011 154.744 18.9651 155.123 18.92L155.135 19.0151C154.756 19.0602 154.377 19.1061 153.999 19.1537ZM191.693 18.9724C191.314 18.929 190.935 18.8863 190.555 18.8453L190.566 18.7502C190.945 18.7912 191.325 18.8338 191.704 18.8773L191.694 18.9724H191.693ZM156.273 18.8855L156.262 18.7904C156.642 18.7486 157.022 18.7076 157.402 18.669L157.411 18.7641C157.032 18.8035 156.653 18.8437 156.273 18.8855ZM189.416 18.7264C189.036 18.6879 188.657 18.651 188.277 18.6157L188.286 18.5206C188.666 18.5558 189.046 18.5927 189.426 18.6313L189.416 18.7264ZM158.551 18.6501L158.542 18.555C158.922 18.5189 159.302 18.4837 159.683 18.45L159.691 18.5452C159.311 18.5788 158.931 18.6141 158.551 18.6501ZM187.137 18.5132C186.756 18.4804 186.376 18.4492 185.995 18.4189L186.003 18.3238C186.383 18.3541 186.764 18.3853 187.145 18.4181L187.137 18.5132ZM160.831 18.4476L160.824 18.3525C161.205 18.3213 161.585 18.2918 161.966 18.2639L161.973 18.359C161.593 18.3869 161.212 18.4164 160.831 18.4476ZM184.853 18.3336C184.473 18.3065 184.092 18.2803 183.711 18.2557L183.717 18.1606C184.099 18.1852 184.479 18.2106 184.86 18.2376L184.853 18.3328V18.3336ZM163.115 18.2795L163.109 18.1843C163.49 18.1589 163.871 18.1351 164.252 18.1122L164.258 18.2073C163.878 18.2294 163.496 18.254 163.115 18.2795ZM182.568 18.1868C182.186 18.1655 181.806 18.145 181.424 18.1261L181.429 18.031C181.811 18.0499 182.192 18.0704 182.574 18.0917L182.568 18.1868ZM165.402 18.1442L165.397 18.049C165.778 18.0293 166.16 18.0105 166.541 17.9941L166.545 18.0892C166.164 18.1064 165.782 18.1245 165.402 18.1442ZM180.281 18.0728C179.899 18.0564 179.518 18.0417 179.136 18.0285L179.14 17.9326C179.521 17.9457 179.903 17.9605 180.285 17.9769L180.281 18.072V18.0728ZM167.689 18.0417L167.686 17.9457C168.067 17.9318 168.449 17.9186 168.831 17.9072L168.833 18.0031C168.452 18.0146 168.07 18.0277 167.689 18.0417ZM177.992 17.9924C177.61 17.9818 177.229 17.9728 176.847 17.9646L176.849 17.8686C177.231 17.8768 177.613 17.8858 177.994 17.8965L177.992 17.9924ZM169.978 17.9728L169.975 17.8768C170.357 17.8678 170.739 17.8604 171.121 17.8547L171.122 17.9506C170.741 17.9564 170.359 17.9637 169.978 17.9728ZM175.702 17.9457C175.321 17.9408 174.939 17.9367 174.557 17.9342V17.8383C174.939 17.8407 175.322 17.844 175.703 17.8498L175.701 17.9457H175.702ZM172.267 17.9367V17.8407C172.649 17.8375 173.03 17.8358 173.413 17.835V17.9309C173.031 17.9309 172.65 17.9334 172.267 17.9367Z" fill="#D7DAF4"/>
<path d="M27.7919 262.39L28.7308 249.023H35.6431L34.7042 262.39H27.7919Z" fill="#06112D"/>
<path d="M82.7882 262.39L81.8492 249.023H88.7615L89.7005 262.39H82.7882Z" fill="#06112D"/>
<path d="M21.6 267.487H93.5586C95.3399 267.487 96.7847 266.041 96.7847 264.255C96.7847 262.47 95.3399 261.023 93.5586 261.023H21.6L6.42469 147.679C6.1873 145.91 4.56891 144.668 2.79827 144.905C1.03254 145.142 -0.207643 146.768 0.0289334 148.537L15.1821 261.857C15.6053 265.064 18.3649 267.487 21.6 267.487Z" fill="#070D2B"/>
<path d="M66.1992 144.905C67.9698 144.668 69.5882 145.91 69.8256 147.679L85.0009 261.023H136.639C138.421 261.023 139.865 262.47 139.865 264.255C139.865 266.041 138.421 267.487 136.639 267.487H93.5594C95.3407 267.487 96.7855 266.041 96.7855 264.255C96.7855 262.47 95.3407 261.023 93.5594 261.023H21.5999L6.42464 147.679C6.18724 145.91 4.56886 144.668 2.79822 144.905H66.1983H66.1992Z" fill="#0E1738"/>
<path d="M111.132 280.136L104.669 251.582L67.0603 237.345L54.656 228.942L70.1579 225.209L71.489 224.716L81.2967 221.073L86.6896 224.099L122.127 229.879C129.362 230.615 135.338 235.867 136.999 242.953L143.972 280.137H111.133L111.132 280.136Z" fill="#47ADF7"/>
<path d="M111.132 280.136L104.669 251.582L67.0603 237.345L54.656 228.942L70.1579 225.209L71.489 224.716L79.6513 226.671L99.0326 229.435C108.437 230.703 115.333 238.937 114.937 248.438L114.212 280.136H111.133H111.132Z" fill="#218AE5"/>
<path d="M78.2302 280.136L78.1557 261.35H58.1228C44.385 261.35 33.022 250.612 32.2255 236.87L32.6356 216.554L74.8518 226.67L94.2282 229.435C103.635 230.703 110.53 238.94 110.137 248.44L109.37 280.136H78.2302Z" fill="#47ADF7"/>
<path d="M68.1122 154.61C65.5025 157.249 62.8944 159.888 60.2863 162.527L31.4886 168.617C26.7473 169.62 22.3964 166.013 22.2556 161.16C22.2548 161.118 22.2531 161.076 22.2507 161.034C22.0043 155.52 16.1152 152.14 13.7061 147.176C11.5663 142.768 12.3742 137.479 14.045 132.872C15.7158 128.265 18.1879 123.943 19.3733 119.188C21.1587 112.001 20.6642 107.534 16.5262 101.403L44.1958 76.9362C49.177 80.6749 53.6957 85.0574 57.5186 89.9811C61.9882 95.7462 65.4869 102.255 67.8437 109.164C69.1166 112.906 70.0498 116.758 70.9879 120.601C71.737 123.688 72.4844 126.768 73.2334 129.855C74.7011 135.884 76.1075 142.524 73.3349 148.077C72.0849 150.585 70.085 152.624 68.1122 154.61Z" fill="#070D2B"/>
<path d="M58.6991 163.179L74.1323 205.435L78.7475 218.074L78.8286 218.229L79.1298 218.848H146.227V200.46L100.563 195.494C100.563 195.494 77.608 145.906 71.5438 140.125C67.3763 136.146 61.4832 134.938 61.4832 134.938L58.6991 163.177V163.179Z" fill="#FE6081"/>
<path d="M68.1901 166.22L74.1323 205.435L78.8287 218.229C80.2039 218.401 82.0032 218.612 84.0301 218.848H117.631C122.564 217.095 126.195 215.024 119.365 214.291C106.749 212.928 83.5495 204.318 83.5495 198.022C83.5495 191.725 87.009 181.229 80.7008 167.948C79.2412 164.875 74.6284 151.9 74.6284 151.9L68.1901 166.219V166.22Z" fill="#B94768"/>
<path d="M21.9969 192.959C22.0378 193.342 25.2288 218.588 25.3827 226.261C25.9279 233.242 81.3851 228.895 80.839 221.907C80.839 221.907 80.302 209.585 79.2518 194.646C79.2436 194.638 79.2518 194.638 79.2518 194.638C79.9762 192.804 80.627 190.936 81.1403 189.027C82.166 185.211 82.5974 181.174 81.832 177.294C81.1157 173.673 79.3901 170.338 78.0632 166.889C77.2085 164.662 76.525 162.379 75.9471 160.071C75.9389 160.055 75.9389 160.047 75.9389 160.038C75.4264 156.296 74.8722 152.936 74.2861 150.188C74.2779 150.171 74.2779 150.155 74.2779 150.139C74.0741 148.533 73.822 146.959 73.3906 145.467C72.7635 143.322 70.5819 141.006 69.0274 139.465C66.9113 137.377 64.3147 135.836 61.4815 134.94C60.7898 134.719 60.1382 134.549 59.552 134.426C53.2357 133.097 42.9712 132.094 36.7932 133.015C35.0266 133.276 32.7722 133.578 30.3385 134.246C25.593 135.518 20.4162 138.25 18.7716 141.748C13.269 153.458 20.9205 182.512 21.9953 192.958L21.9969 192.959Z" fill="#FE6081"/>
<path d="M32.0962 146.349C32.0962 146.349 35.1749 152.82 38.5779 161.532C41.9808 170.244 43.6655 196.132 43.6655 196.132L80.1515 204.25L64.3975 207.974L30.6587 203.681L25.3263 168.833L32.0962 146.349Z" fill="#B94768"/>
<path d="M108.21 213.09H146.781V218.848H102.946V218.364C102.946 215.451 105.302 213.09 108.21 213.09Z" fill="#A7ABC6"/>
<path d="M154.617 218.848H129.824L136.402 172.178C136.675 170.314 138.271 168.932 140.148 168.932H153.832L154.618 218.849L154.617 218.848Z" fill="#A7ABC6"/>
<path d="M133.433 218.848H190.341L196.766 173.27C197.102 170.989 195.33 168.931 193.02 168.931H143.755C141.878 168.931 140.282 170.313 140.009 172.177L133.431 218.848L133.433 218.848Z" fill="#D7DAF4"/>
<path d="M164.478 201.333C167.623 201.333 170.638 198.769 171.215 195.619C171.785 192.462 169.699 189.906 166.548 189.906C163.396 189.906 160.388 192.462 159.811 195.619C159.241 198.777 161.327 201.333 164.478 201.333Z" fill="#A7ABC6"/>
<path d="M12.335 187.822L14.9398 209.749C15.5259 214.935 19.9055 218.849 25.1061 218.849H79.7488L80.1474 204.253L41.8736 198.512C41.8736 198.512 43.1555 140.228 21.2062 138.732C21.2062 138.732 13.2412 143.949 10.9581 162.502C10.0094 170.212 11.8373 181.135 12.3334 187.822H12.335Z" fill="#FE6081"/>
<path d="M79.7487 218.849H107.644C107.66 218.841 107.676 218.833 107.693 218.833C109.915 217.83 104.877 216.019 103.696 215.636C105.316 215.58 108.939 216.501 109.476 215.237C110.33 213.231 105.577 212.546 103.957 212.309C105.552 212.448 110.289 212.481 110.721 210.343C111.038 208.745 106.081 208.925 102.605 208.844C103.728 208.55 106.252 207.212 106.553 206.046C107.172 203.674 98.0798 204.505 93.7976 205.198C95.1893 203.78 97.8514 200.485 96.63 199.702C94.1881 198.161 80.1466 204.253 80.1466 204.253L79.7479 218.849H79.7487Z" fill="#FEC3BD"/>
<path d="M57.9313 142.778C51.3497 146.716 38.3822 132.659 38.3822 132.659L36.4961 116.843L43.0425 114.107L49.782 116.918L56.0051 119.513L56.8311 126.883L58.5559 131.556C58.5559 131.556 62.7635 139.888 57.9313 142.778Z" fill="#FEC3BD"/>
<path d="M56.0042 119.513L56.8302 126.883C56.8302 126.883 42.8173 124.736 39.7393 119.555C37.6658 116.055 44.8794 116.353 49.7812 116.918L56.0042 119.513Z" fill="#F18B89"/>
<path d="M61.791 122.693C48.8718 129.516 36.4969 116.84 36.4969 116.84C36.4969 116.84 28.342 117.294 26.7768 111.374C25.2116 105.455 29.8195 103.737 31.8047 105.116C31.8047 105.116 28.5433 79.102 44.8278 76.0833C51.2285 74.895 56.9882 80.9316 60.8381 89.0503C66.7804 101.584 69.3745 118.688 61.7901 122.693H61.791Z" fill="#FEC3BD"/>
<path d="M62.048 82.005C63.7482 96.6819 34.8793 88.3811 38.3854 92.4462C41.8899 96.5048 37.7886 96.8312 36.108 103.119C34.8564 107.802 35.5227 109.841 35.0275 110.183C34.4135 110.606 33.6138 109.355 32.9646 107.991C31.3798 104.657 26.2226 105.929 26.4731 109.613C26.5099 110.152 26.6065 110.737 26.7743 111.372C28.3411 117.296 36.4944 116.838 36.4944 116.838L37.214 121.758C11.0817 113.568 4.64089 76.5811 39.8949 67.6062C53.4862 64.1454 60.3412 67.3306 62.0488 82.0058L62.048 82.005Z" fill="#070D2B"/>
<path d="M56.1115 280.136L47.8059 225.532H44.8049L53.1113 280.136H56.1115Z" fill="#FE8B70"/>
<path d="M36.4993 280.136L44.8049 225.532H41.8047L33.4991 280.136H36.4993Z" fill="#FE8B70"/>
<path d="M35.3664 233.725H54.2443V228.406H35.3664V233.725Z" fill="#FE8B70"/>
<path d="M233.187 280.136L224.882 225.532H221.881L230.187 280.136H233.187Z" fill="#FE8B70"/>
<path d="M213.575 280.136L221.881 225.532H218.881L210.575 280.136H213.575Z" fill="#FE8B70"/>
<path d="M23.7545 228.406L241.651 228.406V218.592L23.7545 218.592V228.406Z" fill="#FCC283"/>
<path d="M215.142 233.725H229.74V228.406H215.142V233.725Z" fill="#FE8B70"/>
<path d="M145.304 149.966H236.277V58.8297L145.304 58.8297V149.966Z" fill="#F9DAE0"/>
<path d="M236.28 54.444V58.8281H145.303V54.444C145.303 51.8501 147.401 49.7482 149.991 49.7482H231.593C234.183 49.7482 236.281 51.8501 236.281 54.444H236.28Z" fill="#F7B3C2"/>
<path d="M177.308 75.2599C176.142 76.3441 174.948 80.1262 174.668 81.695C173.932 85.8176 174.223 90.1205 175.509 94.1052C175.707 94.7187 175.949 95.3542 176.445 95.7643C177.21 96.3957 178.357 96.2957 179.268 95.9037C180.749 95.2673 181.888 93.9822 182.597 92.5323C183.305 91.0824 183.619 89.4702 183.793 87.8645C184.208 84.0372 183.86 80.1287 182.776 76.4351" fill="#06112D"/>
<path d="M158.232 149.966C163.968 137.474 173.558 121.007 176.337 119.363L177.734 149.966H158.232Z" fill="#82CAFA"/>
<path d="M163.967 149.966C163.984 149.832 164.002 149.698 164.026 149.567C164.976 144.33 169.005 138.284 169.005 138.284L172.145 127.342C172.145 127.342 172.52 143.256 172.674 149.966H163.967Z" fill="#218AE5"/>
<path d="M197.548 129.257C197.844 129.382 198.155 129.496 198.435 129.657C199.343 130.182 199.778 131.127 200.167 132.135L209.387 136.488C209.496 136.468 209.605 136.447 209.714 136.426C209.916 136.39 210.118 136.348 210.32 136.301C211.611 136.01 212.908 135.543 213.681 134.504C214.516 133.382 214.542 131.829 214.163 130.483C213.779 129.143 213.043 127.933 212.426 126.675C211.814 125.424 211.311 124.047 211.456 122.659C211.632 121.018 212.67 119.605 213.069 118.005C213.666 115.584 212.691 112.992 211.094 111.08C209.502 109.168 206.976 108.623 205.188 106.888C204.373 106.093 203.803 105.568 203.803 105.568L200.121 106.165C200.121 106.165 199.774 107.661 199.395 109.376C199.042 110.981 198.664 112.789 198.545 113.714C198.244 115.948 197.964 120.572 197.767 124.452C197.674 126.354 197.601 128.079 197.549 129.258L197.548 129.257Z" fill="#06112D"/>
<path d="M209.714 136.426C209.606 136.447 209.497 136.468 209.388 136.488L210.632 137.076L210.321 136.301C210.119 136.348 209.917 136.39 209.714 136.426Z" fill="#3D479C"/>
<path d="M209.388 136.488L200.168 132.135C200.49 132.946 200.77 133.793 201.252 134.494C202.118 135.762 203.622 136.488 205.141 136.712C206.551 136.925 207.982 136.749 209.388 136.489V136.488Z" fill="#3D479C"/>
<path d="M198.436 129.657C198.156 129.496 197.845 129.382 197.549 129.257C197.507 130.254 197.487 130.868 197.487 130.868L200.168 132.135C199.779 131.128 199.344 130.182 198.436 129.657Z" fill="#3D479C"/>
<path d="M196.455 128.52C196.714 128.894 197.119 129.086 197.549 129.257C197.601 128.078 197.674 126.353 197.767 124.451C197.674 124.659 197.565 124.861 197.44 125.059C197.103 125.604 196.678 126.098 196.419 126.679C196.159 127.267 196.086 127.994 196.455 128.519V128.52Z" fill="#3D479C"/>
<path d="M199.393 109.375C203.576 109.277 205.188 106.888 205.188 106.888C204.372 106.095 203.803 105.569 203.803 105.569L200.12 106.168C200.12 106.168 199.771 107.662 199.392 109.375H199.393Z" fill="#FE6081"/>
<path d="M213.333 149.966H165.642C165.717 146.469 166.973 142.387 170.62 138.526C170.62 138.526 171.411 122.613 175.837 119.683C179.134 117.5 180.122 117.97 184.058 117.6C188.061 117.22 195.032 117.434 199.034 117.804C203.36 118.203 211.241 120.379 213.593 124.032C214.968 126.17 214.608 134.936 213.788 143.963C213.648 145.508 213.494 147.57 213.333 149.965V149.966Z" fill="#82CAFA"/>
<path d="M204.364 149.966C203.207 144.455 202.25 138.378 202.683 134.82C203.475 128.315 208.6 125.488 208.6 125.488C210.677 126.529 212.076 135.901 213.788 143.964C213.648 145.51 213.494 147.572 213.333 149.967H204.364V149.966Z" fill="#218AE5"/>
<path d="M205.849 149.966C204.274 144.669 203.028 138.694 203.387 133.767C204.09 124.146 213.056 123.256 213.056 123.256C216.569 124.862 220.938 137.882 223.35 149.966H205.849Z" fill="#82CAFA"/>
<path d="M186.262 125.555C194.922 128.049 199.034 117.805 199.034 117.805L198.228 104.944L193.348 104.017L189.137 106.921L185.248 109.6L185.746 114.769L185.997 117.401C185.997 117.401 183.147 124.657 186.262 125.555Z" fill="#FEC3BD"/>
<path d="M185.248 109.6L185.746 114.769C185.746 114.769 195.036 111.267 196.397 107.272C197.313 104.573 192.414 105.822 189.136 106.92L185.247 109.599L185.248 109.6Z" fill="#F18B89"/>
<path d="M181.743 112.617C191.579 115.42 198.227 104.942 198.227 104.942C198.227 104.942 203.879 104.071 204.097 99.7884C204.315 95.5059 200.91 94.9967 199.749 96.2292C199.749 96.2292 198.227 77.9334 186.634 78.2253C182.077 78.3385 179.003 83.309 177.538 89.4292C175.277 98.8781 175.968 110.972 181.743 112.617Z" fill="#FEC3BD"/>
<path d="M175.692 84.7785C176.646 95.0803 195.226 85.2099 193.411 88.5033C191.596 91.7918 194.453 91.4211 196.512 95.4854C198.045 98.5132 197.884 100.007 198.273 100.169C198.755 100.37 199.123 99.3972 199.37 98.368C199.975 95.8545 203.691 95.9783 204.051 98.5386C204.104 98.9133 204.123 99.3283 204.099 99.7876C203.881 104.073 198.229 104.941 198.229 104.941L198.446 108.416C216.66 104.018 214.24 72.7448 188.791 71.7041C178.979 71.3031 174.743 74.4784 175.692 84.7794L175.692 84.7785Z" fill="#06112D"/>
<path d="M154.303 55.1829C154.303 56.1268 153.541 56.8903 152.599 56.8903C151.657 56.8903 150.886 56.1268 150.886 55.1829C150.886 54.239 151.648 53.4755 152.599 53.4755C153.549 53.4755 154.303 54.239 154.303 55.1829Z" fill="white"/>
<path d="M160.177 55.1829C160.177 56.1268 159.415 56.8903 158.472 56.8903C157.53 56.8903 156.76 56.1268 156.76 55.1829C156.76 54.239 157.522 53.4755 158.472 53.4755C159.423 53.4755 160.177 54.239 160.177 55.1829Z" fill="white"/>
<path d="M166.05 55.1829C166.05 56.1268 165.288 56.8903 164.346 56.8903C163.404 56.8903 162.633 56.1268 162.633 55.1829C162.633 54.239 163.395 53.4755 164.346 53.4755C165.296 53.4755 166.05 54.239 166.05 55.1829Z" fill="white"/>
<path d="M259.993 112.927L350.966 112.927V21.7902L259.993 21.7902V112.927Z" fill="#F9DAE0"/>
<path d="M350.967 17.4045V21.7886H259.99V17.4045C259.99 14.8106 262.088 12.7087 264.678 12.7087H346.28C348.87 12.7087 350.968 14.8106 350.968 17.4045H350.967Z" fill="#F7B3C2"/>
<path d="M268.991 18.1442C268.991 19.0881 268.229 19.8516 267.287 19.8516C266.345 19.8516 265.574 19.0881 265.574 18.1442C265.574 17.2003 266.337 16.4368 267.287 16.4368C268.237 16.4368 268.991 17.2003 268.991 18.1442Z" fill="white"/>
<path d="M274.865 18.1442C274.865 19.0881 274.103 19.8516 273.161 19.8516C272.218 19.8516 271.448 19.0881 271.448 18.1442C271.448 17.2003 272.21 16.4368 273.161 16.4368C274.111 16.4368 274.865 17.2003 274.865 18.1442Z" fill="white"/>
<path d="M280.738 18.1442C280.738 19.0881 279.976 19.8516 279.034 19.8516C278.092 19.8516 277.321 19.0881 277.321 18.1442C277.321 17.2003 278.084 16.4368 279.034 16.4368C279.984 16.4368 280.738 17.2003 280.738 18.1442Z" fill="white"/>
<path d="M262.041 75.0155C261.001 74.4284 259.369 73.6936 258.896 74.5514C258.182 75.8381 262.158 77.8202 262.158 77.8202C262.158 77.8202 258.69 76.7639 259.701 78.564C260.715 80.3657 270.873 83.582 270.873 83.582L273.415 76.5835C273.415 76.5835 269.344 70.2698 268.277 71.4367C267.782 71.9796 268.653 74.7342 268.653 74.7342C268.653 74.7342 263.32 70.4116 262.441 71.6639C261.972 72.3413 262.993 73.2671 264.034 73.9822C262.238 72.9686 259.707 71.6852 259.446 72.3249C259.168 73.0137 260.918 74.2865 262.04 75.0155H262.041Z" fill="#FEC3BD"/>
<path d="M304.169 59.8712C304.169 59.8712 303.359 83.2319 302.805 84.0839C302.449 84.6342 301.967 85.2739 301.389 85.9611C298.276 89.6867 292.43 94.8359 289.213 94.9967C289.028 95.0049 288.835 95.0049 288.635 94.9885C282.308 94.5825 269.885 83.3401 269.885 83.3401L273.564 74.3972L287.402 80.4666C292.044 71.463 296.337 61.6598 304.168 59.8712H304.169Z" fill="#37C092"/>
<path d="M301.388 85.9611C298.275 89.6867 292.43 94.8359 289.212 94.9967C289.027 95.0049 288.834 95.0049 288.634 94.9885C295.442 91.5277 297.312 69.9836 297.312 69.9836C297.312 69.9836 299.779 79.4972 301.388 85.9611Z" fill="#238A6F"/>
<path d="M295.025 112.928H327.8C327.788 112.607 327.774 105.902 327.762 105.567C327.598 101.099 327.447 95.5896 327.619 93.6214C327.993 89.3414 329.667 83.1048 330.602 77.2314C331.456 71.8943 331.694 66.8583 329.788 63.8625C328.022 61.0841 318.774 59.3218 318.774 59.3218L308.346 58.6977C308.346 58.6977 301.147 60.2968 299.56 62.4996C296.116 67.2716 296.386 86.1144 296.386 86.1144C296.386 86.1144 295.53 105.352 295.025 112.928Z" fill="#37C092"/>
<path d="M304.788 29.1955C304.788 29.1955 302.914 35.9833 306.921 38.9322C310.042 41.2285 311.113 34.626 311.434 31.595C311.492 31.0349 310.86 30.6716 310.405 31.0046L307.344 33.2458" fill="#06112D"/>
<path d="M320.398 46.5023C319.672 48.7772 318.934 56.1325 318.773 59.3201C318.769 59.4571 314.905 63.8863 310.556 64.0749C308.1 64.1799 307.984 58.8576 308.008 58.7772C308.029 58.7083 308.137 57.206 308.249 55.4453C308.365 53.5763 308.482 51.4179 308.49 50.3846C308.498 50.0795 308.494 49.8704 308.473 49.8015C308.385 49.4677 308.577 49.1258 308.906 49.0216L319.587 45.6856C320.089 45.5289 320.558 45.9988 320.397 46.5015L320.398 46.5023Z" fill="#FEC3BD"/>
<path d="M316.647 52.0895C315.58 53.6608 309.59 55.2484 308.25 55.4461C308.366 53.5771 308.482 51.4187 308.491 50.3854C308.972 50.2329 309.337 50.1205 309.337 50.1205C309.337 50.1205 318.236 49.7425 316.647 52.0903V52.0895Z" fill="#F18B89"/>
<path d="M307.386 53.8527C313.1 55.9488 318.844 50.5068 320.491 48.1761V48.1729C320.781 47.7604 320.983 47.4364 321.088 47.2593C321.147 47.1609 321.228 47.083 321.329 47.0272C322.129 46.5868 325.768 44.4423 325.099 42.1961C324.662 40.734 323.718 40.4822 323.002 40.5281C322.581 40.5552 322.251 40.1574 322.344 39.7458C324.862 28.546 312.357 27.9375 308.479 32.7505C308.308 32.9613 308.13 33.2237 307.947 33.5312C305.314 37.9055 301.248 51.6008 307.386 53.8527Z" fill="#FEC3BD"/>
<path d="M305.233 33.8732C306.268 38.8486 318.83 33.4435 318.135 35.5707C317.622 37.1436 319.073 37.8317 319.864 38.0843C320.145 38.1737 320.327 38.4443 320.31 38.7387L320.119 41.9968C320.1 42.3159 320.316 42.6012 320.627 42.6693C320.923 42.7341 321.224 42.5857 321.352 42.3109L321.972 40.9906C322.048 40.8282 322.187 40.7028 322.359 40.6495C322.984 40.4559 324.507 40.2148 325.099 42.1961C325.768 44.4423 322.129 46.5868 321.329 47.0272C321.229 47.0821 321.147 47.1609 321.088 47.2593C320.982 47.4364 320.781 47.7595 320.49 48.1728V48.1761L319.869 48.9675C319.659 49.5661 319.075 55.4075 319.075 55.4075C319.075 55.4075 329.339 44.1561 329.333 38.1737C329.325 29.8934 324.675 33.4008 324.299 30.1623C323.922 26.9239 319.096 25.2255 315.811 25.5978C312.53 25.9709 307.034 25.7881 305.583 27.2904C304.303 28.6124 304.723 31.4203 305.233 33.874V33.8732Z" fill="#06112D"/>
<path d="M299.56 94.2578L301.456 104.502L311.119 104.891L327.762 105.567C327.598 101.099 327.447 95.5896 327.619 93.6222C327.993 89.3422 329.667 83.1056 330.602 77.2322L323.259 68.6723C323.259 68.6723 321.156 72.7981 320.423 75.8446C319.69 78.8879 319.177 89.3865 319.177 89.3865L299.56 94.2586V94.2578Z" fill="#238A6F"/>
<path d="M300.967 96.3498C300.967 96.3498 294.563 91.7262 293.488 92.4118C292.426 93.0933 295.23 96.4457 295.23 96.4457" fill="#FEC3BD"/>
<path d="M295.23 96.4457C294.475 96.3596 288.851 95.7265 289.226 97.1371C289.362 97.6496 290.476 98.2376 290.972 98.3614C289.438 98.4049 287.263 98.8764 287.408 99.5784C287.608 100.555 289.471 100.455 290.12 100.39C289.461 100.48 287.568 100.818 287.961 101.732C288.2 102.289 290.479 102.454 291.196 102.477C290.674 102.648 288.693 103.101 289.587 104.018C290.736 105.198 302.065 103.489 302.065 103.489L300.968 96.3482" fill="#FEC3BD"/>
<path d="M332.846 100.126C329.182 103.766 301.456 104.501 301.456 104.501L299.56 94.2578L321.126 90.232C321.126 90.232 320.928 76.1759 322.052 71.7074C323.686 65.1992 329.791 63.8625 329.791 63.8625C330.288 64.439 332.728 67.2109 333.608 70.6978C336.002 80.1886 336.47 96.5294 332.847 100.127L332.846 100.126Z" fill="#37C092"/>
<path d="M309.692 230.845C309.692 230.845 294.995 227.875 293.121 218.188C291.441 209.502 305.555 198.766 305.555 198.766C324.605 219.842 309.692 230.845 309.692 230.845Z" fill="#37C092"/>
<path d="M306.166 217.57C306.827 219.107 307.331 220.707 307.778 222.318C308.012 223.122 308.194 223.939 308.393 224.751C308.497 225.157 308.575 225.568 308.661 225.977L308.915 227.207C309.552 230.493 309.958 233.82 310.232 237.155L310.398 239.66C310.415 239.868 310.419 240.077 310.426 240.286L310.446 240.913L310.486 242.168L310.526 243.423L310.536 243.736V244.05L310.535 244.678L310.529 247.188L310.527 247.815C310.527 248.024 310.514 248.233 310.508 248.443L310.463 249.696L310.37 252.204C310.365 252.413 310.346 252.622 310.331 252.83L310.284 253.456L310.191 254.707L310.005 257.209L310.168 254.705L310.249 253.454L310.29 252.828C310.303 252.62 310.32 252.411 310.323 252.202L310.408 249.695L310.45 248.441C310.455 248.232 310.468 248.023 310.468 247.814V247.187L310.465 244.678V244.051L310.463 243.738L310.453 243.424L310.409 242.171L310.364 240.918L310.342 240.292C310.335 240.083 310.33 239.874 310.312 239.665L310.138 237.163C309.877 233.83 309.481 230.505 308.854 227.22L308.604 225.991C308.52 225.582 308.443 225.171 308.341 224.765C308.146 223.953 307.964 223.136 307.735 222.332C307.304 220.718 306.815 219.114 306.168 217.572L306.166 217.57Z" fill="#238A6F"/>
<path d="M321.668 254.251L317.903 280.136H295.868L292.102 254.251H321.668Z" fill="#FCC283"/>
<path d="M320.883 259.651L321.668 254.251H292.102L292.888 259.651H320.883Z" fill="#FE8B70"/>
<path d="M308.712 248.261C308.712 248.261 304.114 228.738 334.513 219.974C334.513 219.974 338.639 238.762 331.191 246.086C322.887 254.252 308.712 248.261 308.712 248.261Z" fill="#37C092"/>
<path d="M321.668 236.672C321.201 236.855 320.746 237.066 320.296 237.285C319.845 237.504 319.403 237.738 318.965 237.982C318.09 238.469 317.238 238.999 316.418 239.573C315.597 240.147 314.807 240.764 314.054 241.424C313.868 241.592 313.676 241.753 313.496 241.926L312.954 242.445L312.431 242.982L312.3 243.117L312.174 243.256L311.924 243.536C311.259 244.283 310.626 245.063 310.075 245.899C309.52 246.732 309.005 247.595 308.587 248.506L308.424 248.844L308.279 249.191C308.184 249.423 308.085 249.653 307.993 249.886L307.745 250.595C307.705 250.714 307.658 250.831 307.624 250.951L307.521 251.313C307.453 251.554 307.376 251.793 307.316 252.036L307.149 252.769C307.123 252.891 307.09 253.013 307.069 253.137L307.007 253.508L306.885 254.251C307.137 252.262 307.66 250.293 308.529 248.479C308.943 247.563 309.456 246.693 310.007 245.854C310.558 245.013 311.188 244.226 311.852 243.473L312.105 243.194L312.232 243.055L312.363 242.92L312.891 242.383L313.439 241.866C313.621 241.693 313.814 241.532 314.001 241.364C314.76 240.707 315.556 240.092 316.381 239.521C318.034 238.383 319.798 237.399 321.668 236.673V236.672Z" fill="#238A6F"/>
<path d="M299.632 236.672C300.892 237.684 301.952 238.934 302.844 240.28C303.733 241.633 304.438 243.108 304.923 244.654C305.051 245.038 305.145 245.433 305.25 245.824C305.332 246.221 305.428 246.615 305.486 247.016L305.536 247.315L305.561 247.465L305.579 247.616L305.649 248.219C305.663 248.32 305.67 248.421 305.675 248.522L305.696 248.825C305.707 249.026 305.727 249.228 305.726 249.431L305.735 250.038L305.738 250.189L305.733 250.341L305.722 250.644C305.713 250.846 305.713 251.049 305.697 251.25L305.646 251.855L305.62 252.157L305.579 252.457L305.496 253.058C305.485 253.159 305.466 253.258 305.447 253.357L305.391 253.655L305.28 254.25L305.38 253.652L305.43 253.354C305.447 253.255 305.463 253.155 305.473 253.055L305.544 252.454L305.579 252.153L305.599 251.851L305.643 251.247C305.657 251.046 305.654 250.844 305.661 250.642L305.668 250.339L305.671 250.188L305.667 250.038L305.652 249.433C305.652 249.231 305.629 249.031 305.615 248.83C305.598 248.629 305.592 248.427 305.566 248.227L305.494 247.627L305.476 247.476L305.45 247.327L305.399 247.03C305.341 246.63 305.243 246.239 305.16 245.845C305.054 245.457 304.959 245.065 304.831 244.682C304.357 243.142 303.653 241.675 302.782 240.321C302.345 239.643 301.865 238.993 301.34 238.381C300.815 237.77 300.256 237.183 299.632 236.671L299.632 236.672Z" fill="#238A6F"/>
<path d="M301.736 238.721C301.736 238.721 297.417 222.414 274.496 224.633C274.496 224.633 280.116 245.238 288.116 247.596C297.529 250.37 301.736 238.721 301.736 238.721Z" fill="#37C092"/>
<path d="M311.438 179.735C321.321 179.735 329.333 171.709 329.333 161.807C329.333 151.906 321.321 143.88 311.438 143.88C301.554 143.88 293.542 151.906 293.542 161.807C293.542 171.709 301.554 179.735 311.438 179.735Z" fill="#EAE8FE"/>
<path d="M117.871 116.945C127.755 116.945 135.767 108.919 135.767 99.0175C135.767 89.1163 127.755 81.0898 117.871 81.0898C107.988 81.0898 99.9756 89.1163 99.9756 99.0175C99.9756 108.919 107.988 116.945 117.871 116.945Z" fill="#EAE8FE"/>
<path d="M305.66 160.61C305.66 163.268 307.813 165.42 310.461 165.42V171.577C304.416 171.577 299.519 166.67 299.519 160.61C299.519 154.55 304.416 149.648 310.461 149.648V155.805C307.813 155.805 305.66 157.957 305.66 160.609V160.61Z" fill="white"/>
<path d="M321.402 160.61H315.261C315.261 157.957 313.108 155.806 310.46 155.806V149.649C316.505 149.649 321.402 154.555 321.402 160.611V160.61Z" fill="#FCC283"/>
<path d="M323.356 163C323.356 169.06 318.459 173.967 312.414 173.967V167.809C315.062 167.809 317.215 165.658 317.215 163H323.356Z" fill="#FE6081"/>
<path d="M106.346 105.746C106.346 106.063 106.577 106.324 106.863 106.324H128.88C129.166 106.324 129.397 106.063 129.397 105.746C129.397 105.43 129.166 105.169 128.88 105.169H106.863C106.577 105.169 106.346 105.426 106.346 105.746Z" fill="#0E1738"/>
<path d="M123.156 103.457H125.582V92.6521H123.156V103.457Z" fill="#FE6081"/>
<path d="M118.825 103.457H121.251V98.5902H118.825V103.457Z" fill="#3A6DC9"/>
<path d="M114.492 103.457H116.918V95.4297H114.492V103.457Z" fill="#FE6081"/>
<path d="M110.161 103.457H112.587V100.035H110.161V103.457Z" fill="#3A6DC9"/>
<path d="M152.832 29.895C161.073 29.895 167.753 23.2028 167.753 14.9475C167.753 6.69223 161.073 0 152.832 0C144.592 0 137.911 6.69223 137.911 14.9475C137.911 23.2028 144.592 29.895 152.832 29.895Z" fill="#37C092"/>
<path d="M150.484 18.4173L147.25 14.5859L147.614 14.2767L150.541 17.7432L159.982 9.74496L160.29 10.1099L150.484 18.4173Z" fill="white"/>
</svg>
